<!-- Map data (c) OpenStreetMap contributors, ODbL -->
<svg class="cad-svg cad-ciudad cad-madrid" viewBox="0 0 400 404" fill="none" preserveAspectRatio="xMidYMid slice" aria-hidden="true"><g class="cad-grupo cad-zoom"><path class="cad-draw" pathLength="1" style="animation-delay:0.00s" d="M200.5 203.2 L199.6 201.6 L198.3 199.4"/><path class="cad-draw" pathLength="1" style="animation-delay:0.00s" d="M202.2 201.4 L201.9 198.3"/><path class="cad-draw" pathLength="1" style="animation-delay:0.01s" d="M194.0 204.0 L196.3 203.8"/><path class="cad-draw" pathLength="1" style="animation-delay:0.01s" d="M196.9 209.7 L200.9 209.2 L203.6 208.8"/><path class="cad-draw" pathLength="1" style="animation-delay:0.02s" d="M209.4 200.6 L210.9 200.5"/><path class="cad-draw" pathLength="1" style="animation-delay:0.02s" d="M205.7 197.9 L209.3 188.9"/><path class="cad-draw" pathLength="1" style="animation-delay:0.03s" d="M204.3 211.7 L207.0 211.9 L209.2 212.1 L211.4 212.2"/><path class="cad-draw" pathLength="1" style="animation-delay:0.03s" d="M189.9 205.1 L190.1 206.4 L189.4 211.3 L189.0 212.8 L186.8 217.3"/><path class="cad-draw" pathLength="1" style="animation-delay:0.04s" d="M213.2 196.9 L212.4 191.4"/><path class="cad-draw" pathLength="1" style="animation-delay:0.04s" d="M185.7 174.6 L189.4 182.0 L190.1 183.2 L191.7 186.4 L194.1 191.1 L196.7 196.4 L198.0 198.8"/><path class="cad-draw" pathLength="1" style="animation-delay:0.05s" d="M183.1 198.2 L183.7 195.8"/><path class="cad-draw" pathLength="1" style="animation-delay:0.05s" d="M216.4 213.7 L216.3 212.3 L216.3 209.0 L216.4 206.9 L216.5 203.7"/><path class="cad-draw" pathLength="1" style="animation-delay:0.06s" d="M189.5 183.3 L188.2 185.1 L187.3 186.4 L186.0 189.3 L186.5 190.4 L186.0 191.6 L186.7 192.5 L188.1 190.4 L188.8 188.9 L187.6 187.8 L188.2 186.7 L189.0 185.5 L189.7 184.4"/><path class="cad-draw" pathLength="1" style="animation-delay:0.06s" d="M212.2 217.8 L216.4 213.7 L219.9 210.6"/><path class="cad-draw" pathLength="1" style="animation-delay:0.06s" d="M180.8 190.4 L181.6 189.2 L183.4 189.2 L182.6 191.5 L180.7 190.5"/><path class="cad-draw" pathLength="1" style="animation-delay:0.07s" d="M189.6 182.3 L191.2 181.1"/><path class="cad-draw" pathLength="1" style="animation-delay:0.07s" d="M202.2 222.6 L200.6 222.1 L199.2 221.7 L198.7 222.9 L197.6 226.0 L198.9 227.1 L200.3 227.8 L201.8 228.5 L203.6 229.3 L206.1 225.6 L205.5 224.4 L204.2 223.9 L202.2 222.6"/><path class="cad-draw" pathLength="1" style="animation-delay:0.08s" d="M211.5 226.8 L211.3 218.7"/><path class="cad-draw" pathLength="1" style="animation-delay:0.08s" d="M189.1 223.4 L187.1 222.7"/><path class="cad-draw" pathLength="1" style="animation-delay:0.09s" d="M175.3 207.4 L175.5 202.4"/><path class="cad-draw" pathLength="1" style="animation-delay:0.09s" d="M175.4 207.4 L176.2 210.8"/><path class="cad-draw" pathLength="1" style="animation-delay:0.10s" d="M201.8 228.5 L200.3 227.8 L198.9 227.1"/><path class="cad-draw" pathLength="1" style="animation-delay:0.10s" d="M198.9 227.1 L195.7 229.3"/><path class="cad-draw" pathLength="1" style="animation-delay:0.11s" d="M206.1 225.6 L208.2 226.3 L210.4 227.0 L213.0 227.8 L215.7 228.5 L217.6 229.1 L218.8 228.7 L219.0 226.6 L215.7 226.1 L213.6 226.2 L212.1 226.3 L210.9 226.0 L209.6 225.8 L207.8 225.3 L206.1 224.7"/><path class="cad-draw" pathLength="1" style="animation-delay:0.11s" d="M202.4 168.2 L199.4 175.2 L197.5 178.1"/><path class="cad-draw" pathLength="1" style="animation-delay:0.12s" d="M228.6 198.7 L228.6 200.0"/><path class="cad-draw" pathLength="1" style="animation-delay:0.12s" d="M183.4 174.4 L182.0 178.4 L180.3 181.0 L178.9 184.1"/><path class="cad-draw" pathLength="1" style="animation-delay:0.12s" d="M176.8 212.9 L170.6 213.2 L168.2 213.4"/><path class="cad-draw" pathLength="1" style="animation-delay:0.13s" d="M192.0 167.3 L191.6 171.9 L192.9 173.5 L193.9 174.6"/><path class="cad-draw" pathLength="1" style="animation-delay:0.13s" d="M169.1 194.7 L169.9 193.6"/><path class="cad-draw" pathLength="1" style="animation-delay:0.14s" d="M186.1 171.7 L183.7 173.7"/><path class="cad-draw" pathLength="1" style="animation-delay:0.14s" d="M172.6 178.8 L174.4 178.4 L176.5 178.0 L178.1 177.9 L181.4 178.4"/><path class="cad-draw" pathLength="1" style="animation-delay:0.15s" d="M227.7 224.8 L226.5 225.2 L223.0 225.6 L219.6 226.0"/><path class="cad-draw" pathLength="1" style="animation-delay:0.15s" d="M174.1 226.1 L175.0 227.0 L179.6 226.5"/><path class="cad-draw" pathLength="1" style="animation-delay:0.16s" d="M172.6 178.8 L172.0 183.1"/><path class="cad-draw" pathLength="1" style="animation-delay:0.16s" d="M180.2 230.8 L178.4 231.5"/><path class="cad-draw" pathLength="1" style="animation-delay:0.17s" d="M164.6 205.8 L163.1 206.1"/><path class="cad-draw" pathLength="1" style="animation-delay:0.17s" d="M162.5 202.5 L164.1 202.3"/><path class="cad-draw" pathLength="1" style="animation-delay:0.18s" d="M199.1 167.9 L199.5 161.7"/><path class="cad-draw" pathLength="1" style="animation-delay:0.18s" d="M178.4 231.5 L176.5 232.3"/><path class="cad-draw" pathLength="1" style="animation-delay:0.18s" d="M164.1 191.6 L163.2 192.6"/><path class="cad-draw" pathLength="1" style="animation-delay:0.19s" d="M161.4 211.7 L162.7 212.3 L166.3 213.4"/><path class="cad-draw" pathLength="1" style="animation-delay:0.19s" d="M227.7 224.8 L228.2 229.6 L228.4 231.7"/><path class="cad-draw" pathLength="1" style="animation-delay:0.20s" d="M185.5 166.4 L184.0 166.3 L182.4 165.9"/><path class="cad-draw" pathLength="1" style="animation-delay:0.20s" d="M161.6 214.5 L162.4 215.6 L163.9 216.9"/><path class="cad-draw" pathLength="1" style="animation-delay:0.21s" d="M176.9 167.6 L180.7 167.7 L181.8 167.0"/><path class="cad-draw" pathLength="1" style="animation-delay:0.21s" d="M220.5 169.7 L221.9 169.8 L223.4 170.0 L225.1 170.3 L227.3 170.8 L229.4 171.4 L231.7 172.2"/><path class="cad-draw" pathLength="1" style="animation-delay:0.22s" d="M193.4 158.3 L199.7 159.5 L200.9 159.8 L206.0 161.2 L207.4 162.4 L211.9 163.8"/><path class="cad-draw" pathLength="1" style="animation-delay:0.22s" d="M241.8 203.1 L241.4 199.5"/><path class="cad-draw" pathLength="1" style="animation-delay:0.23s" d="M156.8 212.1 L159.6 211.1 L161.1 210.9"/><path class="cad-draw" pathLength="1" style="animation-delay:0.23s" d="M186.1 158.7 L185.8 162.7 L185.6 165.7"/><path class="cad-draw" pathLength="1" style="animation-delay:0.24s" d="M242.1 187.2 L240.5 187.9 L238.9 188.7"/><path class="cad-draw" pathLength="1" style="animation-delay:0.24s" d="M173.5 167.5 L175.0 167.6"/><path class="cad-draw" pathLength="1" style="animation-delay:0.24s" d="M190.0 244.5 L191.4 244.9"/><path class="cad-draw" pathLength="1" style="animation-delay:0.25s" d="M192.1 245.1 L193.8 245.4"/><path class="cad-draw" pathLength="1" style="animation-delay:0.25s" d="M231.3 232.4 L230.3 235.8"/><path class="cad-draw" pathLength="1" style="animation-delay:0.26s" d="M157.3 215.7 L156.5 213.0"/><path class="cad-draw" pathLength="1" style="animation-delay:0.26s" d="M163.1 231.1 L164.1 227.1"/><path class="cad-draw" pathLength="1" style="animation-delay:0.27s" d="M157.5 218.6 L158.0 220.8"/><path class="cad-draw" pathLength="1" style="animation-delay:0.27s" d="M231.7 172.2 L233.4 172.8 L234.8 173.4 L241.9 176.1 L243.2 176.6"/><path class="cad-draw" pathLength="1" style="animation-delay:0.28s" d="M153.8 203.7 L154.7 199.4 L154.1 198.3 L152.1 196.0"/><path class="cad-draw" pathLength="1" style="animation-delay:0.28s" d="M234.7 188.9 L235.8 189.6 L236.9 189.1 L238.9 188.1 L240.4 186.9 L241.9 186.8 L246.2 185.2 L248.3 184.7 L251.7 183.1 L252.9 182.7 L253.3 181.4 L252.4 180.6 L248.2 179.1 L247.5 180.0 L249.7 181.0 L250.6 181.8 L247.3 183.5 L245.6 184.3 L243.9 185.0 L242.6 185.6 L241.4 186.1 L240.0 186.7 L238.9 187.2 L237.1 188.0 L235.8 188.5 L234.7 188.9"/><path class="cad-draw" pathLength="1" style="animation-delay:0.29s" d="M186.9 150.3 L185.1 151.7 L187.2 155.5 L188.0 156.5 L189.7 158.6 L191.4 160.7 L193.1 160.3 L193.4 158.3 L190.8 154.9 L186.9 150.3"/><path class="cad-draw" pathLength="1" style="animation-delay:0.29s" d="M154.1 198.3 L150.1 201.4"/><path class="cad-draw" pathLength="1" style="animation-delay:0.30s" d="M224.6 159.7 L220.3 158.1"/><path class="cad-draw" pathLength="1" style="animation-delay:0.30s" d="M166.5 167.3 L165.5 166.3"/><path class="cad-draw" pathLength="1" style="animation-delay:0.30s" d="M216.4 247.0 L227.1 246.8"/><path class="cad-draw" pathLength="1" style="animation-delay:0.31s" d="M216.4 251.2 L209.7 251.5 L207.4 251.6 L205.8 251.8"/><path class="cad-draw" pathLength="1" style="animation-delay:0.31s" d="M147.8 192.3 L149.0 197.3 L150.1 201.4 L150.6 203.2"/><path class="cad-draw" pathLength="1" style="animation-delay:0.32s" d="M152.4 190.8 L149.1 191.7 L147.8 192.3"/><path class="cad-draw" pathLength="1" style="animation-delay:0.32s" d="M211.1 169.0 L211.9 163.8 L212.9 160.3 L214.6 153.7 L215.5 150.2 L217.0 139.0 L217.8 131.1"/><path class="cad-draw" pathLength="1" style="animation-delay:0.33s" d="M241.0 195.2 L251.6 193.8 L254.5 193.7 L259.7 193.5"/><path class="cad-draw" pathLength="1" style="animation-delay:0.33s" d="M212.7 130.8 L209.1 148.7 L207.0 158.6 L206.4 161.4"/><path class="cad-draw" pathLength="1" style="animation-delay:0.34s" d="M161.2 164.3 L163.5 164.6"/><path class="cad-draw" pathLength="1" style="animation-delay:0.34s" d="M227.1 246.8 L231.7 246.9"/><path class="cad-draw" pathLength="1" style="animation-delay:0.35s" d="M144.0 205.3 L146.3 208.4 L147.5 210.0 L148.5 214.6"/><path class="cad-draw" pathLength="1" style="animation-delay:0.35s" d="M145.4 194.1 L145.8 198.1 L146.2 202.4 L146.1 203.7"/><path class="cad-draw" pathLength="1" style="animation-delay:0.36s" d="M256.5 183.5 L252.4 185.0 L243.8 187.9 L251.1 185.0 L256.1 183.3"/><path class="cad-draw" pathLength="1" style="animation-delay:0.36s" d="M144.0 205.3 L146.1 203.7"/><path class="cad-draw" pathLength="1" style="animation-delay:0.36s" d="M252.1 179.9 L248.9 178.7"/><path class="cad-draw" pathLength="1" style="animation-delay:0.37s" d="M157.8 162.5 L159.5 163.6 L161.2 164.3"/><path class="cad-draw" pathLength="1" style="animation-delay:0.37s" d="M141.9 199.0 L145.8 198.1"/><path class="cad-draw" pathLength="1" style="animation-delay:0.38s" d="M192.3 261.0 L195.8 259.1 L197.0 258.2 L199.0 256.3"/><path class="cad-draw" pathLength="1" style="animation-delay:0.38s" d="M200.5 143.7 L198.1 146.1"/><path class="cad-draw" pathLength="1" style="animation-delay:0.39s" d="M255.7 182.1 L253.0 183.1"/><path class="cad-draw" pathLength="1" style="animation-delay:0.39s" d="M259.9 212.8 L253.5 215.5"/><path class="cad-draw" pathLength="1" style="animation-delay:0.40s" d="M190.4 256.8 L188.2 257.6 L186.3 258.0 L182.5 258.8 L174.4 259.9"/><path class="cad-draw" pathLength="1" style="animation-delay:0.40s" d="M233.1 252.6 L227.4 252.4"/><path class="cad-draw" pathLength="1" style="animation-delay:0.41s" d="M152.6 228.5 L151.0 228.0 L149.3 227.4 L147.3 226.4 L146.0 225.7 L143.2 224.3 L140.2 222.8 L135.5 220.9"/><path class="cad-draw" pathLength="1" style="animation-delay:0.41s" d="M151.4 236.5 L150.2 235.4"/><path class="cad-draw" pathLength="1" style="animation-delay:0.42s" d="M216.4 255.4 L226.4 255.1 L233.2 255.0 L236.0 255.0"/><path class="cad-draw" pathLength="1" style="animation-delay:0.42s" d="M253.4 169.2 L250.6 169.3 L249.1 169.1"/><path class="cad-draw" pathLength="1" style="animation-delay:0.42s" d="M138.6 192.2 L140.2 191.5 L141.3 190.0 L142.0 188.1 L142.3 186.1 L141.8 183.8 L141.2 182.7 L140.2 181.4"/><path class="cad-draw" pathLength="1" style="animation-delay:0.43s" d="M141.4 216.4 L141.4 218.1 L141.0 219.8 L140.3 222.3"/><path class="cad-draw" pathLength="1" style="animation-delay:0.43s" d="M161.2 164.3 L160.7 163.1 L159.4 158.5 L158.3 154.0 L158.0 152.0 L157.6 150.4 L157.4 149.2"/><path class="cad-draw" pathLength="1" style="animation-delay:0.44s" d="M148.2 237.9 L148.8 235.2"/><path class="cad-draw" pathLength="1" style="animation-delay:0.44s" d="M208.8 262.9 L209.3 264.8 L211.6 264.5 L211.3 262.7 L209.7 262.7"/><path class="cad-draw" pathLength="1" style="animation-delay:0.45s" d="M253.1 233.4 L252.7 237.7"/><path class="cad-draw" pathLength="1" style="animation-delay:0.45s" d="M156.7 162.3 L151.0 161.6 L144.3 161.9"/><path class="cad-draw" pathLength="1" style="animation-delay:0.46s" d="M139.9 210.6 L137.8 210.4 L132.5 210.2"/><path class="cad-draw" pathLength="1" style="animation-delay:0.46s" d="M200.0 136.8 L196.3 139.9 L195.3 139.1 L196.8 137.6 L197.8 136.6 L199.5 136.4"/><path class="cad-draw" pathLength="1" style="animation-delay:0.47s" d="M139.6 174.7 L142.6 174.9"/><path class="cad-draw" pathLength="1" style="animation-delay:0.47s" d="M211.6 130.7 L210.7 132.2 L207.7 137.2 L204.9 139.9 L200.5 143.7"/><path class="cad-draw" pathLength="1" style="animation-delay:0.48s" d="M267.7 215.0 L266.0 214.4 L261.4 212.7"/><path class="cad-draw" pathLength="1" style="animation-delay:0.48s" d="M178.1 266.8 L176.3 264.5 L174.8 262.7 L173.8 260.8"/><path class="cad-draw" pathLength="1" style="animation-delay:0.48s" d="M164.1 258.8 L171.9 262.7"/><path class="cad-draw" pathLength="1" style="animation-delay:0.49s" d="M141.8 236.8 L143.2 237.0"/><path class="cad-draw" pathLength="1" style="animation-delay:0.49s" d="M133.1 218.4 L135.1 217.8"/><path class="cad-draw" pathLength="1" style="animation-delay:0.50s" d="M170.7 141.9 L166.3 141.1"/><path class="cad-draw" pathLength="1" style="animation-delay:0.50s" d="M262.4 233.7 L262.3 227.6"/><path class="cad-draw" pathLength="1" style="animation-delay:0.51s" d="M195.2 267.2 L188.7 270.1 L182.3 273.5"/><path class="cad-draw" pathLength="1" style="animation-delay:0.51s" d="M220.5 169.7 L220.5 168.3 L222.4 164.2 L224.1 160.6 L226.8 155.7 L229.8 150.6 L231.6 147.3 L234.0 143.0 L237.3 137.1 L238.5 134.9 L239.0 133.8 L239.8 132.3 L242.8 125.9 L244.0 123.5 L244.7 121.9 L245.9 119.3 L250.3 110.6"/><path class="cad-draw" pathLength="1" style="animation-delay:0.52s" d="M275.9 231.1 L263.3 233.9 L261.9 233.7 L253.1 233.4"/><path class="cad-draw" pathLength="1" style="animation-delay:0.52s" d="M172.3 262.9 L172.4 266.6 L172.5 268.3 L172.5 271.6"/><path class="cad-draw" pathLength="1" style="animation-delay:0.53s" d="M169.1 266.5 L171.8 267.7"/><path class="cad-draw" pathLength="1" style="animation-delay:0.53s" d="M232.4 268.9 L226.4 268.7 L221.8 268.4"/><path class="cad-draw" pathLength="1" style="animation-delay:0.54s" d="M245.8 253.4 L249.8 256.2 L251.0 257.0"/><path class="cad-draw" pathLength="1" style="animation-delay:0.54s" d="M204.2 122.5 L200.2 128.0 L193.4 137.3"/><path class="cad-draw" pathLength="1" style="animation-delay:0.54s" d="M273.8 195.5 L272.1 203.1"/><path class="cad-draw" pathLength="1" style="animation-delay:0.55s" d="M160.3 141.3 L159.1 140.6"/><path class="cad-draw" pathLength="1" style="animation-delay:0.55s" d="M144.2 251.6 L143.0 251.1 L143.6 249.9 L145.2 249.8 L146.5 249.8 L145.9 251.1 L144.2 251.6"/><path class="cad-draw" pathLength="1" style="animation-delay:0.56s" d="M148.2 255.7 L148.4 254.4"/><path class="cad-draw" pathLength="1" style="animation-delay:0.56s" d="M175.2 126.3 L174.7 130.7 L173.7 139.1"/><path class="cad-draw" pathLength="1" style="animation-delay:0.57s" d="M271.1 221.2 L273.0 222.4"/><path class="cad-draw" pathLength="1" style="animation-delay:0.57s" d="M125.7 218.2 L126.5 210.4"/><path class="cad-draw" pathLength="1" style="animation-delay:0.58s" d="M143.7 162.0 L143.8 160.5 L142.2 157.1 L138.5 149.3 L137.7 147.6"/><path class="cad-draw" pathLength="1" style="animation-delay:0.58s" d="M276.9 180.8 L274.3 192.8 L273.8 195.5"/><path class="cad-draw" pathLength="1" style="animation-delay:0.59s" d="M273.6 219.8 L274.9 219.7"/><path class="cad-draw" pathLength="1" style="animation-delay:0.59s" d="M143.3 256.4 L144.7 256.0 L146.0 255.8 L147.6 255.7"/><path class="cad-draw" pathLength="1" style="animation-delay:0.60s" d="M130.3 174.0 L130.7 167.5 L130.8 165.4"/><path class="cad-draw" pathLength="1" style="animation-delay:0.60s" d="M172.5 271.6 L171.2 273.6 L168.0 275.0"/><path class="cad-draw" pathLength="1" style="animation-delay:0.60s" d="M125.0 219.6 L124.8 220.9 L124.6 223.0 L124.5 225.1"/><path class="cad-draw" pathLength="1" style="animation-delay:0.61s" d="M159.0 133.8 L160.4 135.3 L161.8 135.3 L163.1 135.1 L160.9 133.6 L159.5 133.1"/><path class="cad-draw" pathLength="1" style="animation-delay:0.61s" d="M239.8 132.3 L234.8 130.6 L232.9 130.0 L231.7 129.9 L229.3 129.8 L224.6 130.0"/><path class="cad-draw" pathLength="1" style="animation-delay:0.62s" d="M278.0 209.2 L279.6 200.3"/><path class="cad-draw" pathLength="1" style="animation-delay:0.62s" d="M275.7 219.5 L277.8 218.3 L278.6 217.1"/><path class="cad-draw" pathLength="1" style="animation-delay:0.63s" d="M183.6 120.1 L189.4 126.9"/><path class="cad-draw" pathLength="1" style="animation-delay:0.63s" d="M221.5 278.5 L225.7 278.5"/><path class="cad-draw" pathLength="1" style="animation-delay:0.64s" d="M276.8 242.9 L273.3 242.1 L270.9 241.5 L266.3 240.4 L262.9 239.7"/><path class="cad-draw" pathLength="1" style="animation-delay:0.64s" d="M279.2 218.0 L279.0 216.5"/><path class="cad-draw" pathLength="1" style="animation-delay:0.65s" d="M124.0 237.6 L125.0 225.2"/><path class="cad-draw" pathLength="1" style="animation-delay:0.65s" d="M277.8 175.9 L277.4 177.5"/><path class="cad-draw" pathLength="1" style="animation-delay:0.66s" d="M192.0 286.2 L194.2 284.7 L191.2 279.6"/><path class="cad-draw" pathLength="1" style="animation-delay:0.66s" d="M262.9 264.5 L262.9 258.7 L262.9 254.4 L262.9 252.1 L262.8 245.0"/><path class="cad-draw" pathLength="1" style="animation-delay:0.66s" d="M149.8 268.2 L155.6 271.1"/><path class="cad-draw" pathLength="1" style="animation-delay:0.67s" d="M129.4 153.9 L129.9 156.0 L130.0 158.3 L129.8 161.8"/><path class="cad-draw" pathLength="1" style="animation-delay:0.67s" d="M131.0 158.9 L131.1 155.9 L131.0 154.3 L130.9 152.9"/><path class="cad-draw" pathLength="1" style="animation-delay:0.68s" d="M123.7 240.9 L128.2 244.6 L129.8 245.7 L130.6 246.7"/><path class="cad-draw" pathLength="1" style="animation-delay:0.68s" d="M217.9 281.4 L220.5 284.1 L221.4 285.4"/><path class="cad-draw" pathLength="1" style="animation-delay:0.69s" d="M130.4 254.4 L131.7 254.8 L133.0 255.0 L135.0 255.2 L136.4 255.2 L138.6 255.1"/><path class="cad-draw" pathLength="1" style="animation-delay:0.69s" d="M140.3 265.4 L149.4 267.3"/><path class="cad-draw" pathLength="1" style="animation-delay:0.70s" d="M139.9 266.0 L142.1 260.3"/><path class="cad-draw" pathLength="1" style="animation-delay:0.70s" d="M279.8 173.4 L281.2 173.2 L279.8 173.4"/><path class="cad-draw" pathLength="1" style="animation-delay:0.71s" d="M239.3 258.0 L241.0 260.1 L243.9 263.9 L248.1 268.0 L249.8 269.5 L250.9 270.4 L256.6 274.0 L260.6 276.6 L265.0 279.5 L267.8 281.3"/><path class="cad-draw" pathLength="1" style="animation-delay:0.71s" d="M149.4 132.6 L150.3 131.5"/><path class="cad-draw" pathLength="1" style="animation-delay:0.72s" d="M130.8 152.2 L130.5 150.8 L130.1 149.6"/><path class="cad-draw" pathLength="1" style="animation-delay:0.72s" d="M228.8 116.9 L230.2 124.0"/><path class="cad-draw" pathLength="1" style="animation-delay:0.72s" d="M282.1 172.4 L280.8 172.3 L282.1 172.4"/><path class="cad-draw" pathLength="1" style="animation-delay:0.73s" d="M145.6 135.0 L144.5 133.9"/><path class="cad-draw" pathLength="1" style="animation-delay:0.73s" d="M128.3 151.3 L129.3 150.5 L130.1 149.1"/><path class="cad-draw" pathLength="1" style="animation-delay:0.74s" d="M154.8 277.5 L153.2 277.2 L154.1 275.5 L154.8 277.5"/><path class="cad-draw" pathLength="1" style="animation-delay:0.74s" d="M127.0 151.9 L128.3 151.3"/><path class="cad-draw" pathLength="1" style="animation-delay:0.75s" d="M205.7 288.6 L203.8 289.4 L200.2 291.0 L197.6 292.1"/><path class="cad-draw" pathLength="1" style="animation-delay:0.75s" d="M150.3 131.5 L148.1 127.7"/><path class="cad-draw" pathLength="1" style="animation-delay:0.76s" d="M251.6 129.6 L253.2 130.0 L252.8 131.4 L251.0 131.2 L251.6 129.6"/><path class="cad-draw" pathLength="1" style="animation-delay:0.76s" d="M284.4 178.1 L286.2 176.9"/><path class="cad-draw" pathLength="1" style="animation-delay:0.77s" d="M207.8 287.8 L206.0 288.5 L206.5 290.8 L207.8 293.4 L209.3 293.8 L210.5 293.1 L209.7 291.4 L208.4 289.0 L207.8 287.8"/><path class="cad-draw" pathLength="1" style="animation-delay:0.77s" d="M294.3 196.8 L283.7 197.1"/><path class="cad-draw" pathLength="1" style="animation-delay:0.78s" d="M131.2 145.1 L129.6 146.9"/><path class="cad-draw" pathLength="1" style="animation-delay:0.78s" d="M112.8 220.9 L111.9 221.9"/><path class="cad-draw" pathLength="1" style="animation-delay:0.78s" d="M285.2 174.1 L285.5 172.7"/><path class="cad-draw" pathLength="1" style="animation-delay:0.79s" d="M164.4 281.0 L162.3 281.6 L161.0 282.0 L155.6 283.4 L151.9 285.1"/><path class="cad-draw" pathLength="1" style="animation-delay:0.79s" d="M287.0 174.1 L285.2 174.1"/><path class="cad-draw" pathLength="1" style="animation-delay:0.80s" d="M128.8 147.5 L127.6 146.7 L126.3 145.7"/><path class="cad-draw" pathLength="1" style="animation-delay:0.80s" d="M122.4 249.8 L122.3 251.4"/><path class="cad-draw" pathLength="1" style="animation-delay:0.81s" d="M239.2 110.7 L231.3 115.4 L229.1 116.7 L224.2 119.6"/><path class="cad-draw" pathLength="1" style="animation-delay:0.81s" d="M110.3 166.3 L112.6 164.6 L119.5 158.2 L121.4 156.5 L124.8 153.6"/><path class="cad-draw" pathLength="1" style="animation-delay:0.82s" d="M204.6 296.0 L203.1 293.4"/><path class="cad-draw" pathLength="1" style="animation-delay:0.82s" d="M141.3 278.1 L141.2 274.0 L141.2 270.3"/><path class="cad-draw" pathLength="1" style="animation-delay:0.83s" d="M222.2 115.1 L225.0 114.1 L227.9 112.3 L229.0 111.7 L232.5 109.5"/><path class="cad-draw" pathLength="1" style="animation-delay:0.83s" d="M266.2 266.4 L267.8 267.3 L269.3 268.1"/><path class="cad-draw" pathLength="1" style="animation-delay:0.84s" d="M294.1 188.9 L294.3 196.0 L294.5 204.7 L294.4 206.5 L294.5 211.8 L294.7 216.9"/><path class="cad-draw" pathLength="1" style="animation-delay:0.84s" d="M190.8 110.3 L191.4 104.9"/><path class="cad-draw" pathLength="1" style="animation-delay:0.84s" d="M132.0 270.9 L128.6 263.1"/><path class="cad-draw" pathLength="1" style="animation-delay:0.85s" d="M274.0 150.4 L274.2 144.8 L274.4 139.5 L274.6 132.3"/><path class="cad-draw" pathLength="1" style="animation-delay:0.85s" d="M145.7 124.4 L144.4 122.4"/><path class="cad-draw" pathLength="1" style="animation-delay:0.86s" d="M127.6 273.5 L132.0 270.9 L137.8 267.9"/><path class="cad-draw" pathLength="1" style="animation-delay:0.86s" d="M219.4 106.6 L219.8 107.9"/><path class="cad-draw" pathLength="1" style="animation-delay:0.87s" d="M262.9 144.1 L273.7 144.4 L281.0 144.6 L286.6 144.7 L288.8 144.8"/><path class="cad-draw" pathLength="1" style="animation-delay:0.87s" d="M143.9 122.2 L140.1 124.7"/><path class="cad-draw" pathLength="1" style="animation-delay:0.88s" d="M150.5 280.7 L151.5 283.9 L152.0 285.5 L153.3 289.3 L155.0 294.1 L155.6 295.7"/><path class="cad-draw" pathLength="1" style="animation-delay:0.88s" d="M200.0 299.0 L193.1 301.9"/><path class="cad-draw" pathLength="1" style="animation-delay:0.89s" d="M227.1 297.2 L243.2 291.6 L244.4 290.9"/><path class="cad-draw" pathLength="1" style="animation-delay:0.89s" d="M299.3 230.3 L295.6 230.7 L294.4 231.0 L294.1 227.5 L293.7 226.4 L293.7 224.5 L294.0 223.1 L295.8 223.1 L295.5 224.8 L294.6 226.0 L295.5 226.8 L295.4 228.1 L296.4 229.0 L296.6 230.2 L298.0 230.3 L299.3 230.3"/><path class="cad-draw" pathLength="1" style="animation-delay:0.90s" d="M285.5 172.7 L285.6 171.4 L289.7 159.4 L293.8 147.7 L294.4 146.0"/><path class="cad-draw" pathLength="1" style="animation-delay:0.90s" d="M122.2 154.8 L121.0 153.9 L109.5 145.2 L108.4 144.8"/><path class="cad-draw" pathLength="1" style="animation-delay:0.90s" d="M106.1 157.3 L108.8 163.5 L109.7 165.1"/><path class="cad-draw" pathLength="1" style="animation-delay:0.91s" d="M290.1 276.0 L289.0 272.8 L288.7 271.2 L288.0 267.9 L286.8 261.5 L285.5 254.3 L284.5 247.9 L284.1 245.4 L283.7 242.7 L283.3 240.6 L282.9 238.4 L281.8 232.3"/><path class="cad-draw" pathLength="1" style="animation-delay:0.91s" d="M133.2 129.0 L131.3 126.2"/><path class="cad-draw" pathLength="1" style="animation-delay:0.92s" d="M121.6 264.1 L120.5 263.4 L118.9 262.3 L118.0 261.4 L117.2 260.3 L116.5 259.1"/><path class="cad-draw" pathLength="1" style="animation-delay:0.92s" d="M216.4 102.1 L207.8 101.1 L201.1 100.2"/><path class="cad-draw" pathLength="1" style="animation-delay:0.93s" d="M289.7 164.8 L299.8 166.5"/><path class="cad-draw" pathLength="1" style="animation-delay:0.93s" d="M264.1 123.5 L260.4 119.2 L257.5 115.8"/><path class="cad-draw" pathLength="1" style="animation-delay:0.94s" d="M246.1 106.6 L239.2 110.7"/><path class="cad-draw" pathLength="1" style="animation-delay:0.94s" d="M126.0 277.3 L125.0 274.7 L123.6 270.8 L122.8 268.5 L123.0 266.2"/><path class="cad-draw" pathLength="1" style="animation-delay:0.95s" d="M300.6 217.8 L302.2 218.1 L303.7 218.4"/><path class="cad-draw" pathLength="1" style="animation-delay:0.95s" d="M291.8 150.7 L290.2 150.6 L288.4 150.6"/><path class="cad-draw" pathLength="1" style="animation-delay:0.96s" d="M300.3 166.6 L298.8 171.1 L298.3 172.4"/><path class="cad-draw" pathLength="1" style="animation-delay:0.96s" d="M143.3 105.3 L146.8 107.2 L152.2 110.1 L153.7 110.8 L156.3 111.5 L157.8 111.9"/><path class="cad-draw" pathLength="1" style="animation-delay:0.96s" d="M193.1 301.9 L190.8 302.9 L188.4 304.0 L182.8 306.3 L175.7 309.5 L174.4 310.1"/><path class="cad-draw" pathLength="1" style="animation-delay:0.97s" d="M233.9 101.1 L235.6 100.3 L238.0 105.2 L236.4 106.3 L233.9 101.1"/><path class="cad-draw" pathLength="1" style="animation-delay:0.97s" d="M138.0 286.8 L137.8 288.2"/><path class="cad-draw" pathLength="1" style="animation-delay:0.98s" d="M279.9 273.8 L277.5 272.6"/><path class="cad-draw" pathLength="1" style="animation-delay:0.98s" d="M115.2 133.1 L119.0 138.0"/><path class="cad-draw" pathLength="1" style="animation-delay:0.99s" d="M103.1 150.5 L106.1 157.3"/><path class="cad-draw" pathLength="1" style="animation-delay:0.99s" d="M302.9 218.4 L303.1 221.9 L303.3 230.8 L303.4 235.4 L303.6 241.7"/><path class="cad-draw" pathLength="1" style="animation-delay:1.00s" d="M113.6 140.9 L111.1 139.1"/><path class="cad-draw" pathLength="1" style="animation-delay:1.00s" d="M137.6 289.4 L135.8 289.0 L136.1 287.8"/><path class="cad-draw" pathLength="1" style="animation-delay:1.01s" d="M105.3 184.0 L105.1 186.2 L104.1 194.9 L103.8 197.2 L103.4 199.5 L103.1 200.9 L102.8 202.3 L102.2 203.8 L101.3 206.0 L100.1 207.8 L98.0 209.7 L96.4 210.5 L93.2 211.4 L91.4 211.4 L89.5 211.4 L88.1 211.1 L86.7 210.7 L85.3 210.2 L84.1 209.4 L82.9 207.9 L82.3 206.0 L82.2 204.2 L82.3 201.9 L83.3 191.9 L83.1 190.2 L82.6 188.2 L81.1 186.1 L78.9 182.8"/><path class="cad-draw" pathLength="1" style="animation-delay:1.01s" d="M289.7 145.0 L291.6 145.0 L293.7 145.2"/><path class="cad-draw" pathLength="1" style="animation-delay:1.02s" d="M294.9 231.5 L296.2 231.0 L302.5 230.8 L304.1 230.8 L313.1 230.5 L314.8 229.6"/><path class="cad-draw" pathLength="1" style="animation-delay:1.02s" d="M139.2 294.3 L138.3 293.0 L137.2 291.2 L137.6 289.4 L137.8 288.2"/><path class="cad-draw" pathLength="1" style="animation-delay:1.02s" d="M283.1 275.4 L281.3 274.4 L280.2 273.9"/><path class="cad-draw" pathLength="1" style="animation-delay:1.03s" d="M116.0 131.4 L115.2 133.1"/><path class="cad-draw" pathLength="1" style="animation-delay:1.03s" d="M128.8 116.5 L127.4 117.1 L128.1 119.8 L130.2 118.9 L133.1 118.0 L133.1 116.7 L131.9 114.9 L130.4 115.6 L128.8 116.5"/><path class="cad-draw" pathLength="1" style="animation-delay:1.04s" d="M251.7 107.9 L253.2 105.0 L253.9 103.5"/><path class="cad-draw" pathLength="1" style="animation-delay:1.04s" d="M118.4 126.3 L116.8 129.9 L116.0 131.4"/><path class="cad-draw" pathLength="1" style="animation-delay:1.05s" d="M314.9 181.8 L302.3 181.0"/><path class="cad-draw" pathLength="1" style="animation-delay:1.05s" d="M239.2 98.3 L237.9 98.1"/><path class="cad-draw" pathLength="1" style="animation-delay:1.06s" d="M274.1 279.0 L276.9 280.6 L281.5 283.3 L280.4 285.2 L279.7 286.5 L278.5 285.8 L276.3 284.5 L273.5 283.0 L272.2 282.3 L272.9 281.0 L274.1 279.0"/><path class="cad-draw" pathLength="1" style="animation-delay:1.06s" d="M169.6 101.9 L171.0 97.3 L171.3 95.3 L171.4 94.0 L172.1 88.9 L172.5 85.4"/><path class="cad-draw" pathLength="1" style="animation-delay:1.07s" d="M156.8 95.3 L157.2 98.4 L159.1 98.3 L160.7 98.2 L162.1 98.1 L163.5 98.1 L164.0 96.2 L164.1 94.8 L156.8 95.3"/><path class="cad-draw" pathLength="1" style="animation-delay:1.07s" d="M285.4 276.6 L284.1 275.9"/><path class="cad-draw" pathLength="1" style="animation-delay:1.08s" d="M181.2 88.4 L181.0 89.7 L180.4 93.8"/><path class="cad-draw" pathLength="1" style="animation-delay:1.08s" d="M264.3 300.1 L262.9 299.0 L260.3 297.3 L258.8 296.3 L257.2 295.2"/><path class="cad-draw" pathLength="1" style="animation-delay:1.08s" d="M174.5 312.7 L170.0 311.6 L168.2 311.2 L166.4 310.8 L164.0 310.2"/><path class="cad-draw" pathLength="1" style="animation-delay:1.09s" d="M269.2 105.5 L264.2 113.4"/><path class="cad-draw" pathLength="1" style="animation-delay:1.09s" d="M141.0 299.3 L139.2 299.5"/><path class="cad-draw" pathLength="1" style="animation-delay:1.10s" d="M297.4 259.7 L299.2 259.4 L300.5 259.2"/><path class="cad-draw" pathLength="1" style="animation-delay:1.10s" d="M123.5 272.9 L115.1 277.6 L110.0 280.2 L108.0 281.3"/><path class="cad-draw" pathLength="1" style="animation-delay:1.11s" d="M191.0 86.6 L199.1 88.0"/><path class="cad-draw" pathLength="1" style="animation-delay:1.11s" d="M164.0 310.2 L156.0 308.4 L151.4 307.4"/><path class="cad-draw" pathLength="1" style="animation-delay:1.12s" d="M257.5 303.0 L246.6 307.0 L245.3 307.5"/><path class="cad-draw" pathLength="1" style="animation-delay:1.12s" d="M234.2 312.3 L237.5 311.1 L244.8 308.6"/><path class="cad-draw" pathLength="1" style="animation-delay:1.13s" d="M111.7 285.2 L114.2 283.9 L124.6 278.1"/><path class="cad-draw" pathLength="1" style="animation-delay:1.13s" d="M174.6 313.7 L176.1 314.1 L185.3 316.3 L195.8 318.8 L200.0 319.8 L202.5 320.4 L205.1 321.3"/><path class="cad-draw" pathLength="1" style="animation-delay:1.14s" d="M245.7 308.3 L246.9 307.8 L257.1 304.2 L258.8 303.5"/><path class="cad-draw" pathLength="1" style="animation-delay:1.14s" d="M315.2 225.2 L314.5 223.8 L314.0 222.7"/><path class="cad-draw" pathLength="1" style="animation-delay:1.14s" d="M209.9 318.3 L208.2 317.9 L206.7 318.3 L205.7 319.3"/><path class="cad-draw" pathLength="1" style="animation-delay:1.15s" d="M261.8 301.3 L259.6 302.2"/><path class="cad-draw" pathLength="1" style="animation-delay:1.15s" d="M144.2 305.7 L146.1 306.1 L151.4 307.4"/><path class="cad-draw" pathLength="1" style="animation-delay:1.16s" d="M201.0 76.9 L200.4 81.6 L199.5 88.1 L199.1 91.5"/><path class="cad-draw" pathLength="1" style="animation-delay:1.16s" d="M204.8 319.8 L203.2 319.6"/><path class="cad-draw" pathLength="1" style="animation-delay:1.17s" d="M121.4 288.5 L115.7 284.5 L114.5 283.7 L110.5 280.6"/><path class="cad-draw" pathLength="1" style="animation-delay:1.17s" d="M279.8 287.1 L282.8 288.7"/><path class="cad-draw" pathLength="1" style="animation-delay:1.18s" d="M265.4 103.1 L259.9 99.6"/><path class="cad-draw" pathLength="1" style="animation-delay:1.18s" d="M244.4 87.9 L243.1 92.5 L242.7 93.8"/><path class="cad-draw" pathLength="1" style="animation-delay:1.19s" d="M90.3 158.3 L90.0 157.0 L89.3 156.0"/><path class="cad-draw" pathLength="1" style="animation-delay:1.19s" d="M292.2 280.1 L291.3 278.4 L290.4 276.8"/><path class="cad-draw" pathLength="1" style="animation-delay:1.20s" d="M101.8 165.9 L89.9 165.8 L85.1 165.9 L78.1 166.2 L75.6 166.0"/><path class="cad-draw" pathLength="1" style="animation-delay:1.20s" d="M262.1 302.4 L266.6 300.6 L271.2 299.0 L274.6 297.7"/><path class="cad-draw" pathLength="1" style="animation-delay:1.20s" d="M137.6 302.7 L135.6 302.6 L130.9 300.0 L130.1 299.0 L129.0 298.2 L124.3 295.6 L120.9 293.9 L117.4 292.6"/><path class="cad-draw" pathLength="1" style="animation-delay:1.21s" d="M205.6 321.8 L204.2 322.3"/><path class="cad-draw" pathLength="1" style="animation-delay:1.21s" d="M89.7 259.4 L91.1 259.3 L96.6 258.6 L98.1 258.5"/><path class="cad-draw" pathLength="1" style="animation-delay:1.22s" d="M287.5 283.4 L284.4 288.6 L283.0 290.7"/><path class="cad-draw" pathLength="1" style="animation-delay:1.22s" d="M167.6 89.2 L168.0 85.5 L168.4 81.7"/><path class="cad-draw" pathLength="1" style="animation-delay:1.23s" d="M87.8 249.5 L89.7 249.4"/><path class="cad-draw" pathLength="1" style="animation-delay:1.23s" d="M137.7 304.8 L137.4 307.2"/><path class="cad-draw" pathLength="1" style="animation-delay:1.24s" d="M315.7 240.2 L315.6 238.1"/><path class="cad-draw" pathLength="1" style="animation-delay:1.24s" d="M282.8 291.0 L281.4 292.5"/><path class="cad-draw" pathLength="1" style="animation-delay:1.25s" d="M135.5 304.2 L136.5 306.2 L137.4 307.2"/><path class="cad-draw" pathLength="1" style="animation-delay:1.25s" d="M115.9 292.7 L117.7 294.2 L122.1 296.7 L129.0 300.5 L131.1 301.3 L132.6 302.2"/><path class="cad-draw" pathLength="1" style="animation-delay:1.26s" d="M317.3 166.2 L316.0 166.0"/><path class="cad-draw" pathLength="1" style="animation-delay:1.26s" d="M176.3 322.3 L174.1 321.7 L166.9 320.0"/><path class="cad-draw" pathLength="1" style="animation-delay:1.26s" d="M210.7 323.4 L211.6 325.0"/><path class="cad-draw" pathLength="1" style="animation-delay:1.27s" d="M233.7 84.1 L232.0 83.7 L225.2 81.8 L216.9 79.5 L215.0 78.1"/><path class="cad-draw" pathLength="1" style="animation-delay:1.27s" d="M210.7 79.0 L212.8 79.5"/><path class="cad-draw" pathLength="1" style="animation-delay:1.28s" d="M251.1 88.8 L246.6 87.6 L243.8 86.8"/><path class="cad-draw" pathLength="1" style="animation-delay:1.28s" d="M297.2 138.0 L298.3 134.7 L300.2 129.3 L301.4 126.1 L301.9 124.5 L302.8 122.3"/><path class="cad-draw" pathLength="1" style="animation-delay:1.29s" d="M301.1 120.3 L301.1 122.9 L301.0 124.2 L300.7 125.5 L299.5 128.9 L297.5 134.4 L296.7 136.7"/><path class="cad-draw" pathLength="1" style="animation-delay:1.29s" d="M89.6 257.5 L89.1 258.9 L88.6 260.2"/><path class="cad-draw" pathLength="1" style="animation-delay:1.30s" d="M91.6 264.3 L90.4 261.9"/><path class="cad-draw" pathLength="1" style="animation-delay:1.30s" d="M90.1 261.5 L89.2 260.7"/><path class="cad-draw" pathLength="1" style="animation-delay:1.31s" d="M321.4 167.7 L319.6 167.6"/><path class="cad-draw" pathLength="1" style="animation-delay:1.31s" d="M277.2 300.7 L276.2 302.1"/><path class="cad-draw" pathLength="1" style="animation-delay:1.32s" d="M322.1 173.1 L322.4 174.4 L324.1 175.3"/><path class="cad-draw" pathLength="1" style="animation-delay:1.32s" d="M322.1 173.1 L323.3 172.8"/><path class="cad-draw" pathLength="1" style="animation-delay:1.32s" d="M314.8 247.4 L315.7 259.5"/><path class="cad-draw" pathLength="1" style="animation-delay:1.33s" d="M179.1 331.6 L177.5 325.4 L176.3 322.3"/><path class="cad-draw" pathLength="1" style="animation-delay:1.33s" d="M281.1 301.7 L280.8 300.1 L279.7 299.2 L278.2 299.3"/><path class="cad-draw" pathLength="1" style="animation-delay:1.34s" d="M291.1 287.0 L294.1 287.3 L295.6 287.9"/><path class="cad-draw" pathLength="1" style="animation-delay:1.34s" d="M281.1 301.7 L281.6 299.0 L282.8 297.0"/><path class="cad-draw" pathLength="1" style="animation-delay:1.35s" d="M262.6 90.8 L261.3 89.9 L259.7 89.7"/><path class="cad-draw" pathLength="1" style="animation-delay:1.35s" d="M260.6 88.5 L259.1 89.8"/><path class="cad-draw" pathLength="1" style="animation-delay:1.36s" d="M216.8 331.5 L220.7 329.9 L221.9 329.5 L226.9 327.5 L228.4 326.9 L238.2 323.0 L246.9 321.0 L250.4 320.2"/><path class="cad-draw" pathLength="1" style="animation-delay:1.36s" d="M314.8 247.4 L315.3 271.2"/><path class="cad-draw" pathLength="1" style="animation-delay:1.37s" d="M74.5 169.0 L76.4 169.0"/><path class="cad-draw" pathLength="1" style="animation-delay:1.37s" d="M262.8 89.2 L261.3 88.5"/><path class="cad-draw" pathLength="1" style="animation-delay:1.38s" d="M71.8 230.7 L73.7 230.7 L76.3 230.7"/><path class="cad-draw" pathLength="1" style="animation-delay:1.38s" d="M261.7 86.8 L260.6 88.5"/><path class="cad-draw" pathLength="1" style="animation-delay:1.38s" d="M265.2 89.0 L263.7 89.4"/><path class="cad-draw" pathLength="1" style="animation-delay:1.39s" d="M224.6 75.2 L230.7 74.5"/><path class="cad-draw" pathLength="1" style="animation-delay:1.39s" d="M71.4 174.6 L72.4 173.7 L73.8 174.0"/><path class="cad-draw" pathLength="1" style="animation-delay:1.40s" d="M223.5 68.6 L223.8 70.2 L224.5 74.3 L225.4 80.8"/><path class="cad-draw" pathLength="1" style="animation-delay:1.40s" d="M187.5 72.7 L187.0 71.2 L186.1 70.4"/><path class="cad-draw" pathLength="1" style="animation-delay:1.41s" d="M70.8 169.6 L72.2 170.6 L73.7 172.4"/><path class="cad-draw" pathLength="1" style="animation-delay:1.41s" d="M67.9 189.3 L70.1 185.3"/><path class="cad-draw" pathLength="1" style="animation-delay:1.42s" d="M98.2 116.9 L99.5 117.3"/><path class="cad-draw" pathLength="1" style="animation-delay:1.42s" d="M228.8 62.9 L229.5 64.5 L230.0 66.4 L231.7 74.4 L232.9 79.7 L233.3 81.7 L233.6 83.6"/><path class="cad-draw" pathLength="1" style="animation-delay:1.43s" d="M280.5 309.0 L280.8 305.7"/><path class="cad-draw" pathLength="1" style="animation-delay:1.43s" d="M304.4 120.7 L305.2 118.5"/><path class="cad-draw" pathLength="1" style="animation-delay:1.44s" d="M160.7 70.3 L163.7 70.6 L165.9 70.9 L169.8 71.4 L177.4 72.3 L179.8 72.6 L181.8 72.9"/><path class="cad-draw" pathLength="1" style="animation-delay:1.44s" d="M119.9 91.9 L122.2 96.2"/><path class="cad-draw" pathLength="1" style="animation-delay:1.44s" d="M185.9 68.2 L184.7 69.5"/><path class="cad-draw" pathLength="1" style="animation-delay:1.45s" d="M303.2 121.3 L304.2 118.3 L304.5 116.8 L304.2 115.1 L304.2 113.9"/><path class="cad-draw" pathLength="1" style="animation-delay:1.45s" d="M68.0 230.5 L68.4 228.1"/><path class="cad-draw" pathLength="1" style="animation-delay:1.46s" d="M195.7 348.0 L186.4 331.0 L185.7 329.9"/><path class="cad-draw" pathLength="1" style="animation-delay:1.46s" d="M143.3 311.4 L143.7 314.5 L144.8 321.3 L146.0 328.6 L146.2 330.0 L146.9 334.8 L147.5 338.6"/><path class="cad-draw" pathLength="1" style="animation-delay:1.47s" d="M299.2 290.8 L302.6 293.7"/><path class="cad-draw" pathLength="1" style="animation-delay:1.47s" d="M102.9 315.1 L107.3 313.0 L110.3 311.6 L112.6 308.9 L116.8 304.0 L118.0 303.2 L119.7 300.9 L121.8 297.3"/><path class="cad-draw" pathLength="1" style="animation-delay:1.48s" d="M193.0 74.0 L193.9 68.0 L195.7 55.7"/><path class="cad-draw" pathLength="1" style="animation-delay:1.48s" d="M288.7 100.4 L295.4 101.7"/><path class="cad-draw" pathLength="1" style="animation-delay:1.49s" d="M316.3 278.1 L316.1 271.1"/><path class="cad-draw" pathLength="1" style="animation-delay:1.49s" d="M228.8 62.9 L227.6 64.2 L226.6 65.3 L223.5 68.6 L219.2 73.5"/><path class="cad-draw" pathLength="1" style="animation-delay:1.50s" d="M89.3 264.5 L90.7 269.8 L92.5 276.9 L93.1 279.1 L95.7 288.3 L96.6 291.6 L98.4 298.4 L98.8 299.7 L99.7 303.1 L102.9 315.1 L104.0 318.6 L105.0 322.7"/><path class="cad-draw" pathLength="1" style="animation-delay:1.50s" d="M146.0 328.6 L144.8 328.2 L139.2 326.2 L134.8 324.6 L133.6 324.1"/><path class="cad-draw" pathLength="1" style="animation-delay:1.50s" d="M214.0 354.4 L206.4 341.6 L205.2 339.4 L197.5 326.7"/><path class="cad-draw" pathLength="1" style="animation-delay:1.51s" d="M160.2 69.2 L160.0 67.9"/><path class="cad-draw" pathLength="1" style="animation-delay:1.51s" d="M318.7 128.9 L320.0 129.4"/><path class="cad-draw" pathLength="1" style="animation-delay:1.52s" d="M315.4 274.8 L315.4 276.0 L315.5 277.5 L315.5 279.1 L315.9 288.8 L316.1 290.9"/><path class="cad-draw" pathLength="1" style="animation-delay:1.52s" d="M183.7 340.6 L184.4 342.0"/><path class="cad-draw" pathLength="1" style="animation-delay:1.53s" d="M128.0 84.2 L133.2 74.7"/><path class="cad-draw" pathLength="1" style="animation-delay:1.53s" d="M160.2 69.2 L158.7 69.0 L151.5 67.9 L149.5 67.6"/><path class="cad-draw" pathLength="1" style="animation-delay:1.54s" d="M328.4 165.9 L327.3 165.2 L327.8 158.8 L328.0 157.4 L328.6 152.5 L329.4 144.8 L330.9 131.5 L331.0 130.3 L331.2 129.0 L332.4 117.1"/><path class="cad-draw" pathLength="1" style="animation-delay:1.54s" d="M187.8 61.1 L186.5 60.8"/><path class="cad-draw" pathLength="1" style="animation-delay:1.55s" d="M184.3 60.2 L183.3 61.9 L180.5 61.1"/><path class="cad-draw" pathLength="1" style="animation-delay:1.55s" d="M304.2 113.3 L304.3 111.6 L304.5 110.4 L308.6 90.0"/><path class="cad-draw" pathLength="1" style="animation-delay:1.56s" d="M117.1 318.5 L119.2 319.0"/><path class="cad-draw" pathLength="1" style="animation-delay:1.56s" d="M223.5 68.6 L223.2 67.4 L221.8 62.7 L220.2 57.7 L219.9 56.5 L217.4 48.4"/><path class="cad-draw" pathLength="1" style="animation-delay:1.56s" d="M66.3 175.4 L66.0 173.7 L65.2 172.2 L64.2 170.9 L62.8 169.9 L61.2 169.3 L59.6 169.1 L57.9 169.3 L56.3 169.9 L55.0 170.9 L53.9 172.2 L53.2 173.7 L52.9 175.4 L53.0 177.1"/><path class="cad-draw" pathLength="1" style="animation-delay:1.57s" d="M297.7 88.2 L295.4 101.2"/><path class="cad-draw" pathLength="1" style="animation-delay:1.57s" d="M316.5 285.2 L316.1 290.9"/><path class="cad-draw" pathLength="1" style="animation-delay:1.58s" d="M251.0 338.8 L249.1 338.6 L247.2 338.4"/><path class="cad-draw" pathLength="1" style="animation-delay:1.58s" d="M100.3 113.2 L95.2 106.5 L93.8 104.5 L87.7 96.1 L86.9 95.1"/><path class="cad-draw" pathLength="1" style="animation-delay:1.59s" d="M314.4 103.5 L312.6 111.8 L312.3 113.0"/><path class="cad-draw" pathLength="1" style="animation-delay:1.59s" d="M308.3 298.6 L310.2 300.6"/><path class="cad-draw" pathLength="1" style="animation-delay:1.60s" d="M49.6 159.2 L53.9 164.8 L55.6 168.2 L56.5 171.2 L57.3 175.6 L57.5 184.3 L57.0 189.4 L55.8 195.5 L52.7 207.0 L51.6 211.8 L50.7 215.1 L49.9 216.7 L48.9 218.2"/><path class="cad-draw" pathLength="1" style="animation-delay:1.60s" d="M78.8 273.0 L75.2 273.1 L70.9 273.3 L69.5 273.3 L67.1 273.4 L65.9 273.4"/><path class="cad-draw" pathLength="1" style="animation-delay:1.61s" d="M201.3 55.3 L196.9 55.0 L191.8 54.5 L189.7 54.5"/><path class="cad-draw" pathLength="1" style="animation-delay:1.61s" d="M62.3 141.9 L65.9 145.8"/><path class="cad-draw" pathLength="1" style="animation-delay:1.62s" d="M65.0 270.9 L64.6 261.5 L64.6 260.0 L65.0 258.0"/><path class="cad-draw" pathLength="1" style="animation-delay:1.62s" d="M54.0 199.1 L52.0 206.8 L48.9 218.2"/><path class="cad-draw" pathLength="1" style="animation-delay:1.62s" d="M60.3 230.2 L46.5 229.9"/><path class="cad-draw" pathLength="1" style="animation-delay:1.63s" d="M202.5 51.5 L201.1 52.0 L197.1 53.3"/><path class="cad-draw" pathLength="1" style="animation-delay:1.63s" d="M334.6 130.6 L333.7 138.6"/><path class="cad-draw" pathLength="1" style="animation-delay:1.64s" d="M189.8 49.4 L189.5 52.4 L189.8 54.0"/><path class="cad-draw" pathLength="1" style="animation-delay:1.64s" d="M66.3 286.0 L66.6 283.0 L66.0 274.5 L65.5 261.6 L65.2 260.0 L65.0 258.0"/><path class="cad-draw" pathLength="1" style="animation-delay:1.65s" d="M149.0 342.6 L147.4 341.9 L146.1 342.1 L145.2 342.9 L144.7 344.0 L144.9 345.5"/><path class="cad-draw" pathLength="1" style="animation-delay:1.65s" d="M350.0 214.6 L349.1 215.8 L349.5 217.1 L350.8 217.5 L351.9 216.6 L351.9 215.3 L350.8 214.6"/><path class="cad-draw" pathLength="1" style="animation-delay:1.66s" d="M79.2 292.4 L78.3 291.6 L77.0 292.2"/><path class="cad-draw" pathLength="1" style="animation-delay:1.66s" d="M72.0 162.1 L70.4 160.0 L67.7 157.3 L64.7 154.0 L63.5 152.7 L61.9 151.1 L58.5 147.4 L57.6 146.5 L54.0 142.7 L52.3 141.0 L48.1 136.7 L47.0 135.6 L42.4 131.2"/><path class="cad-draw" pathLength="1" style="animation-delay:1.67s" d="M336.9 130.7 L336.0 139.0"/><path class="cad-draw" pathLength="1" style="animation-delay:1.67s" d="M113.1 80.2 L106.3 84.0 L99.9 87.6 L93.5 91.3 L88.1 94.4 L86.9 95.1"/><path class="cad-draw" pathLength="1" style="animation-delay:1.68s" d="M173.1 51.6 L174.5 51.6"/><path class="cad-draw" pathLength="1" style="animation-delay:1.68s" d="M176.0 354.9 L173.1 353.9 L170.5 352.9 L169.2 352.4 L162.6 350.2 L160.8 349.6 L151.0 346.4 L149.5 345.6"/><path class="cad-draw" pathLength="1" style="animation-delay:1.68s" d="M108.2 324.1 L106.6 324.4"/><path class="cad-draw" pathLength="1" style="animation-delay:1.69s" d="M144.9 345.5 L146.0 346.6 L147.8 346.9 L149.5 345.6"/><path class="cad-draw" pathLength="1" style="animation-delay:1.69s" d="M343.9 163.0 L349.8 161.2 L351.7 160.7"/><path class="cad-draw" pathLength="1" style="animation-delay:1.70s" d="M314.1 304.3 L315.4 305.1"/><path class="cad-draw" pathLength="1" style="animation-delay:1.70s" d="M191.4 49.5 L190.6 47.8 L189.7 46.6"/><path class="cad-draw" pathLength="1" style="animation-delay:1.71s" d="M121.3 65.1 L117.6 72.4 L117.4 73.7"/><path class="cad-draw" pathLength="1" style="animation-delay:1.71s" d="M113.1 77.6 L109.9 71.8"/><path class="cad-draw" pathLength="1" style="animation-delay:1.72s" d="M191.9 356.2 L191.3 357.8"/><path class="cad-draw" pathLength="1" style="animation-delay:1.72s" d="M54.7 183.2 L54.0 185.2 L53.0 186.4 L51.5 187.3 L50.1 187.9 L48.3 188.6 L45.3 189.7 L44.3 190.4 L43.5 191.4 L42.7 193.9 L42.7 195.6 L42.7 197.3 L42.6 199.5 L42.3 201.0 L41.5 202.0 L40.2 203.1 L37.7 205.0 L27.9 211.3"/><path class="cad-draw" pathLength="1" style="animation-delay:1.73s" d="M315.4 305.1 L317.2 306.1"/><path class="cad-draw" pathLength="1" style="animation-delay:1.73s" d="M122.7 65.3 L120.2 69.2"/><path class="cad-draw" pathLength="1" style="animation-delay:1.74s" d="M217.2 48.1 L218.7 45.3"/><path class="cad-draw" pathLength="1" style="animation-delay:1.74s" d="M59.2 162.5 L56.3 159.9 L53.2 157.8 L31.9 146.1"/><path class="cad-draw" pathLength="1" style="animation-delay:1.74s" d="M174.2 41.2 L174.1 42.5 L173.0 50.9 L173.0 53.3"/><path class="cad-draw" pathLength="1" style="animation-delay:1.75s" d="M317.2 306.1 L318.4 306.7"/><path class="cad-draw" pathLength="1" style="animation-delay:1.75s" d="M123.6 64.6 L121.3 65.1"/><path class="cad-draw" pathLength="1" style="animation-delay:1.76s" d="M102.7 326.7 L104.3 326.8"/><path class="cad-draw" pathLength="1" style="animation-delay:1.76s" d="M144.9 345.5 L143.6 346.5 L142.3 347.5 L141.3 348.3 L132.6 355.1"/><path class="cad-draw" pathLength="1" style="animation-delay:1.77s" d="M46.2 156.0 L49.6 159.2"/><path class="cad-draw" pathLength="1" style="animation-delay:1.77s" d="M336.0 312.1 L319.4 306.2 L318.1 305.0 L317.6 303.8 L317.3 301.6 L316.4 300.2"/><path class="cad-draw" pathLength="1" style="animation-delay:1.78s" d="M81.8 310.7 L85.9 310.1"/><path class="cad-draw" pathLength="1" style="animation-delay:1.78s" d="M358.7 154.4 L354.8 156.6 L353.1 157.6 L351.5 158.5 L350.3 159.1 L348.4 159.7"/><path class="cad-draw" pathLength="1" style="animation-delay:1.79s" d="M53.0 262.2 L55.5 270.6"/><path class="cad-draw" pathLength="1" style="animation-delay:1.79s" d="M201.2 47.4 L200.7 46.1 L199.3 41.8 L198.2 38.4 L197.7 37.1"/><path class="cad-draw" pathLength="1" style="animation-delay:1.80s" d="M211.6 361.6 L215.3 360.9 L218.0 361.4"/><path class="cad-draw" pathLength="1" style="animation-delay:1.80s" d="M240.8 49.5 L242.7 47.4 L244.8 45.1"/><path class="cad-draw" pathLength="1" style="animation-delay:1.80s" d="M156.9 355.0 L159.3 356.6 L163.0 359.3 L164.7 360.5"/><path class="cad-draw" pathLength="1" style="animation-delay:1.81s" d="M225.9 42.9 L228.7 44.1"/><path class="cad-draw" pathLength="1" style="animation-delay:1.81s" d="M160.1 67.0 L160.7 57.9 L160.9 55.2 L160.9 53.4 L160.9 51.8 L161.4 42.5 L161.6 41.1 L161.8 39.8 L162.2 33.6 L162.3 30.1 L162.4 28.6"/><path class="cad-draw" pathLength="1" style="animation-delay:1.82s" d="M109.0 337.6 L113.6 336.3"/><path class="cad-draw" pathLength="1" style="animation-delay:1.82s" d="M289.0 342.0 L280.1 341.4 L277.8 341.2"/><path class="cad-draw" pathLength="1" style="animation-delay:1.83s" d="M217.1 39.0 L216.8 40.6 L217.0 41.8"/><path class="cad-draw" pathLength="1" style="animation-delay:1.83s" d="M219.5 35.9 L221.2 40.8 L222.6 45.0"/><path class="cad-draw" pathLength="1" style="animation-delay:1.84s" d="M37.8 215.5 L37.7 223.6"/><path class="cad-draw" pathLength="1" style="animation-delay:1.84s" d="M276.7 352.6 L277.2 347.8 L277.4 344.9 L277.6 342.7 L277.8 341.2"/><path class="cad-draw" pathLength="1" style="animation-delay:1.85s" d="M125.2 64.5 L120.7 63.9 L116.5 63.4 L112.4 62.8 L108.7 62.3 L106.9 62.1 L105.3 61.8"/><path class="cad-draw" pathLength="1" style="animation-delay:1.85s" d="M37.5 231.3 L40.0 231.4"/><path class="cad-draw" pathLength="1" style="animation-delay:1.86s" d="M180.8 38.2 L178.0 39.2 L176.6 39.6 L175.2 40.0"/><path class="cad-draw" pathLength="1" style="animation-delay:1.86s" d="M238.2 362.1 L240.2 361.4"/><path class="cad-draw" pathLength="1" style="animation-delay:1.86s" d="M214.2 37.5 L216.8 38.6"/><path class="cad-draw" pathLength="1" style="animation-delay:1.87s" d="M104.0 63.0 L105.1 65.0 L106.8 68.2 L107.5 69.6"/><path class="cad-draw" pathLength="1" style="animation-delay:1.87s" d="M276.7 352.6 L272.3 352.2 L267.7 352.0 L260.5 351.4"/><path class="cad-draw" pathLength="1" style="animation-delay:1.88s" d="M285.8 345.6 L279.6 345.1"/><path class="cad-draw" pathLength="1" style="animation-delay:1.88s" d="M247.6 44.1 L246.9 42.2"/><path class="cad-draw" pathLength="1" style="animation-delay:1.89s" d="M193.2 358.9 L193.7 360.3 L197.2 366.7 L197.9 368.1 L202.3 376.1 L203.0 377.4"/><path class="cad-draw" pathLength="1" style="animation-delay:1.89s" d="M227.6 22.4 L230.2 31.0 L230.6 32.2 L231.9 36.3 L232.4 37.8 L233.6 41.8 L234.0 43.1 L236.8 51.9 L237.5 53.2"/><path class="cad-draw" pathLength="1" style="animation-delay:1.90s" d="M232.2 37.1 L226.6 39.0"/><path class="cad-draw" pathLength="1" style="animation-delay:1.90s" d="M124.1 350.7 L125.9 351.4"/><path class="cad-draw" pathLength="1" style="animation-delay:1.91s" d="M194.7 33.2 L194.2 36.5"/><path class="cad-draw" pathLength="1" style="animation-delay:1.91s" d="M181.2 367.7 L181.8 369.4"/><path class="cad-draw" pathLength="1" style="animation-delay:1.92s" d="M308.2 74.6 L310.7 74.9"/><path class="cad-draw" pathLength="1" style="animation-delay:1.92s" d="M194.7 32.7 L192.8 33.3 L188.7 35.0 L186.9 35.7"/><path class="cad-draw" pathLength="1" style="animation-delay:1.92s" d="M62.9 103.7 L62.6 105.1 L62.4 106.3"/><path class="cad-draw" pathLength="1" style="animation-delay:1.93s" d="M32.2 215.6 L32.8 214.4 L31.4 214.1 L30.8 215.3 L32.2 215.6"/><path class="cad-draw" pathLength="1" style="animation-delay:1.93s" d="M300.1 342.8 L292.1 342.2 L290.0 342.1"/><path class="cad-draw" pathLength="1" style="animation-delay:1.94s" d="M78.8 322.5 L82.8 322.0"/><path class="cad-draw" pathLength="1" style="animation-delay:1.94s" d="M198.4 33.0 L199.6 31.8"/><path class="cad-draw" pathLength="1" style="animation-delay:1.95s" d="M95.7 66.5 L102.4 63.6 L103.7 63.1"/><path class="cad-draw" pathLength="1" style="animation-delay:1.95s" d="M366.2 156.6 L364.8 156.6 L363.3 156.3 L360.8 155.3"/><path class="cad-draw" pathLength="1" style="animation-delay:1.96s" d="M250.9 44.3 L255.0 42.1 L256.4 41.6 L261.2 41.0 L266.5 40.3"/><path class="cad-draw" pathLength="1" style="animation-delay:1.96s" d="M216.9 28.4 L219.5 35.9"/><path class="cad-draw" pathLength="1" style="animation-delay:1.97s" d="M58.2 104.8 L60.0 103.6 L61.9 102.4"/><path class="cad-draw" pathLength="1" style="animation-delay:1.97s" d="M29.9 224.7 L30.7 229.6"/><path class="cad-draw" pathLength="1" style="animation-delay:1.98s" d="M49.6 266.7 L48.8 268.9 L39.8 270.3 L39.5 274.6 L38.9 283.2"/><path class="cad-draw" pathLength="1" style="animation-delay:1.98s" d="M360.8 155.3 L362.1 154.2 L364.4 152.2 L365.8 151.1 L366.9 150.2 L368.6 149.1"/><path class="cad-draw" pathLength="1" style="animation-delay:1.98s" d="M275.7 363.4 L276.3 357.3 L276.6 353.8 L276.7 352.6"/><path class="cad-draw" pathLength="1" style="animation-delay:1.99s" d="M47.9 276.2 L42.0 275.0 L39.5 274.6"/><path class="cad-draw" pathLength="1" style="animation-delay:1.99s" d="M30.8 230.7 L28.9 231.0 L27.4 231.3"/><path class="cad-draw" pathLength="1" style="animation-delay:2.00s" d="M94.8 327.8 L95.0 329.0 L95.9 334.3 L96.7 337.0 L98.3 341.5 L98.9 343.9 L98.9 349.3 L99.0 350.8 L99.0 354.3 L98.4 355.3"/><path class="cad-draw" pathLength="1" style="animation-delay:2.00s" d="M81.0 87.1 L75.1 79.1 L73.8 77.3 L72.9 76.2"/><path class="cad-draw" pathLength="1" style="animation-delay:2.01s" d="M365.1 259.6 L365.0 261.0 L363.9 261.7 L362.4 261.4"/><path class="cad-draw" pathLength="1" style="animation-delay:2.01s" d="M85.3 336.2 L84.5 330.4"/><path class="cad-draw" pathLength="1" style="animation-delay:2.02s" d="M104.5 61.8 L103.8 60.5 L100.1 53.8 L99.2 52.1"/><path class="cad-draw" pathLength="1" style="animation-delay:2.02s" d="M242.7 369.6 L244.5 370.3 L257.3 371.3"/><path class="cad-draw" pathLength="1" style="animation-delay:2.03s" d="M42.7 252.7 L41.4 259.0 L39.7 264.9 L38.7 268.5 L38.1 270.8 L37.7 272.4 L37.0 274.8 L36.7 276.3 L35.6 280.1 L35.2 281.9"/><path class="cad-draw" pathLength="1" style="animation-delay:2.03s" d="M311.6 75.0 L313.7 64.4 L314.0 62.9"/><path class="cad-draw" pathLength="1" style="animation-delay:2.04s" d="M353.2 287.3 L353.8 289.8"/><path class="cad-draw" pathLength="1" style="animation-delay:2.04s" d="M31.9 259.4 L33.7 259.1 L34.0 260.9"/><path class="cad-draw" pathLength="1" style="animation-delay:2.04s" d="M57.6 96.6 L58.7 97.4 L57.6 96.6"/><path class="cad-draw" pathLength="1" style="animation-delay:2.05s" d="M46.6 283.2 L45.2 283.1 L42.5 283.1 L40.5 283.0 L38.9 283.2"/><path class="cad-draw" pathLength="1" style="animation-delay:2.05s" d="M196.0 19.4 L195.9 21.0 L195.8 27.8 L195.5 30.6"/><path class="cad-draw" pathLength="1" style="animation-delay:2.06s" d="M216.2 26.1 L217.8 25.5 L222.4 24.1"/><path class="cad-draw" pathLength="1" style="animation-delay:2.06s" d="M280.5 39.6 L279.0 39.7 L273.1 40.0 L269.8 40.1 L267.6 40.2"/><path class="cad-draw" pathLength="1" style="animation-delay:2.07s" d="M120.3 361.6 L118.7 360.9"/><path class="cad-draw" pathLength="1" style="animation-delay:2.07s" d="M79.9 329.9 L76.4 330.4 L74.1 330.7 L72.5 330.9"/><path class="cad-draw" pathLength="1" style="animation-delay:2.08s" d="M299.3 354.2 L297.7 354.0 L288.1 353.4"/><path class="cad-draw" pathLength="1" style="animation-delay:2.08s" d="M373.5 155.1 L371.5 149.6 L370.8 147.7"/><path class="cad-draw" pathLength="1" style="animation-delay:2.09s" d="M117.4 360.8 L116.0 361.5"/><path class="cad-draw" pathLength="1" style="animation-delay:2.09s" d="M71.2 325.3 L71.6 328.9 L72.5 330.9"/><path class="cad-draw" pathLength="1" style="animation-delay:2.10s" d="M114.8 360.0 L115.5 361.9"/><path class="cad-draw" pathLength="1" style="animation-delay:2.10s" d="M36.0 123.9 L40.9 119.3"/><path class="cad-draw" pathLength="1" style="animation-delay:2.10s" d="M379.4 190.8 L380.0 192.5 L380.2 195.0 L380.4 198.0 L380.6 200.0 L381.8 203.9 L382.5 207.5"/><path class="cad-draw" pathLength="1" style="animation-delay:2.11s" d="M369.6 147.4 L370.5 132.9"/><path class="cad-draw" pathLength="1" style="animation-delay:2.11s" d="M204.7 380.5 L205.4 381.8 L206.0 383.1 L208.0 387.2"/><path class="cad-draw" pathLength="1" style="animation-delay:2.12s" d="M242.0 27.8 L240.3 22.7"/><path class="cad-draw" pathLength="1" style="animation-delay:2.12s" d="M313.1 50.5 L303.2 50.7 L294.1 51.0 L292.1 51.0"/><path class="cad-draw" pathLength="1" style="animation-delay:2.13s" d="M72.5 330.9 L70.7 330.9"/><path class="cad-draw" pathLength="1" style="animation-delay:2.13s" d="M90.6 348.0 L89.1 346.2"/><path class="cad-draw" pathLength="1" style="animation-delay:2.14s" d="M359.0 295.9 L356.9 295.9 L355.6 295.5 L354.9 294.5"/><path class="cad-draw" pathLength="1" style="animation-delay:2.14s" d="M114.0 362.4 L112.1 363.0"/><path class="cad-draw" pathLength="1" style="animation-delay:2.15s" d="M356.9 303.6 L355.5 303.9 L352.2 304.6 L347.5 305.7 L345.2 306.2"/><path class="cad-draw" pathLength="1" style="animation-delay:2.15s" d="M99.5 49.2 L97.8 49.2"/><path class="cad-draw" pathLength="1" style="animation-delay:2.16s" d="M98.2 357.3 L97.3 355.5 L94.5 352.3 L90.6 348.0"/><path class="cad-draw" pathLength="1" style="animation-delay:2.16s" d="M25.1 138.7 L29.9 134.6"/><path class="cad-draw" pathLength="1" style="animation-delay:2.16s" d="M190.9 387.1 L190.2 385.7"/><path class="cad-draw" pathLength="1" style="animation-delay:2.17s" d="M233.0 20.7 L235.9 19.7"/><path class="cad-draw" pathLength="1" style="animation-delay:2.17s" d="M66.4 332.4 L70.1 331.8"/><path class="cad-draw" pathLength="1" style="animation-delay:2.18s" d="M329.9 64.0 L328.4 63.4 L317.8 62.8 L316.6 63.1"/><path class="cad-draw" pathLength="1" style="animation-delay:2.18s" d="M103.4 360.4 L101.8 359.8 L98.9 358.8"/><path class="cad-draw" pathLength="1" style="animation-delay:2.19s" d="M98.9 358.8 L98.3 357.7"/><path class="cad-draw" pathLength="1" style="animation-delay:2.19s" d="M147.5 22.1 L147.4 24.1"/><path class="cad-draw" pathLength="1" style="animation-delay:2.20s" d="M236.8 19.5 L239.1 18.8"/><path class="cad-draw" pathLength="1" style="animation-delay:2.20s" d="M298.5 364.6 L298.6 363.3 L298.8 360.3 L299.2 354.7"/><path class="cad-draw" pathLength="1" style="animation-delay:2.21s" d="M239.9 21.6 L239.1 18.8 L238.1 16.0"/><path class="cad-draw" pathLength="1" style="animation-delay:2.21s" d="M42.9 295.8 L42.3 297.7 L42.0 299.4 L41.3 304.1 L40.8 308.1 L40.5 310.8"/><path class="cad-draw" pathLength="1" style="animation-delay:2.22s" d="M244.9 384.1 L246.3 384.3"/><path class="cad-draw" pathLength="1" style="animation-delay:2.22s" d="M98.9 358.8 L97.3 358.3 L95.8 357.7 L85.3 354.0 L84.2 353.4"/><path class="cad-draw" pathLength="1" style="animation-delay:2.22s" d="M203.8 8.2 L206.2 19.0"/><path class="cad-draw" pathLength="1" style="animation-delay:2.23s" d="M370.5 132.9 L372.0 133.0 L379.2 133.4 L380.9 133.5"/><path class="cad-draw" pathLength="1" style="animation-delay:2.23s" d="M32.6 118.4 L33.5 117.6 L34.5 116.1 L34.9 114.5 L34.8 113.1 L33.9 111.5 L32.7 110.4 L31.5 109.7 L29.5 109.3"/><path class="cad-draw" pathLength="1" style="animation-delay:2.24s" d="M109.9 33.1 L109.6 34.4 L113.9 34.6 L117.3 34.7 L117.5 33.5 L115.7 33.5 L112.8 33.4 L111.4 33.2 L109.9 33.1"/><path class="cad-draw" pathLength="1" style="animation-delay:2.24s" d="M384.9 161.0 L386.4 166.6"/><path class="cad-draw" pathLength="1" style="animation-delay:2.25s" d="M295.5 37.3 L294.7 38.3"/><path class="cad-draw" pathLength="1" style="animation-delay:2.25s" d="M65.8 52.1 L69.9 58.0 L74.4 64.3 L79.4 71.3"/><path class="cad-draw" pathLength="1" style="animation-delay:2.26s" d="M243.9 33.3 L245.2 33.1 L268.0 29.2 L269.4 28.8 L281.5 28.4 L289.4 28.0 L296.3 27.7 L305.1 27.4 L313.2 27.0"/><path class="cad-draw" pathLength="1" style="animation-delay:2.26s" d="M140.2 391.0 L141.0 387.0 L140.5 384.7 L139.6 383.0 L138.8 381.9 L128.6 376.1 L120.7 371.9 L113.1 369.6 L109.5 368.9 L105.2 368.2"/><path class="cad-draw" pathLength="1" style="animation-delay:2.27s" d="M244.9 384.1 L245.0 385.3 L244.8 387.6 L244.4 392.0"/><path class="cad-draw" pathLength="1" style="animation-delay:2.27s" d="M8.4 188.5 L10.9 187.6"/><path class="cad-draw" pathLength="1" style="animation-delay:2.28s" d="M8.0 214.1 L9.3 213.9 L10.7 213.5"/><path class="cad-draw" pathLength="1" style="animation-delay:2.28s" d="M316.6 63.1 L317.8 56.2 L319.7 46.7 L320.6 42.6"/><path class="cad-draw" pathLength="1" style="animation-delay:2.28s" d="M26.5 118.9 L28.1 120.4"/><path class="cad-draw" pathLength="1" style="animation-delay:2.29s" d="M309.0 377.5 L309.8 366.2 L310.0 364.6 L310.6 355.5 L310.7 354.3 L311.3 347.8 L311.4 344.7"/><path class="cad-draw" pathLength="1" style="animation-delay:2.29s" d="M310.7 354.9 L320.2 355.6"/><path class="cad-draw" pathLength="1" style="animation-delay:2.30s" d="M22.2 276.6 L23.5 276.3"/><path class="cad-draw" pathLength="1" style="animation-delay:2.30s" d="M20.5 269.9 L18.9 268.4"/><path class="cad-draw" pathLength="1" style="animation-delay:2.31s" d="M22.7 141.8 L18.7 139.3 L16.7 138.3 L15.8 137.4 L15.7 136.1"/><path class="cad-draw" pathLength="1" style="animation-delay:2.31s" d="M226.0 397.5 L226.4 394.5 L222.6 393.0 L221.1 392.5 L217.6 391.5 L215.9 394.8"/><path class="cad-draw" pathLength="1" style="animation-delay:2.32s" d="M62.2 342.1 L61.9 340.9 L61.2 339.9 L61.0 337.8 L60.0 331.4 L59.4 325.7"/><path class="cad-draw" pathLength="1" style="animation-delay:2.32s" d="M100.7 36.1 L103.9 33.9"/><path class="cad-draw" pathLength="1" style="animation-delay:2.33s" d="M287.1 367.4 L296.2 373.0 L297.9 374.0"/><path class="cad-draw" pathLength="1" style="animation-delay:2.33s" d="M380.9 133.5 L381.4 132.2"/><path class="cad-draw" pathLength="1" style="animation-delay:2.34s" d="M6.1 236.0 L7.4 235.6 L9.5 235.0 L11.2 234.5"/><path class="cad-draw" pathLength="1" style="animation-delay:2.34s" d="M297.9 374.0 L298.0 372.4 L298.2 369.1 L298.5 364.6"/><path class="cad-draw" pathLength="1" style="animation-delay:2.34s" d="M40.5 310.8 L40.1 312.7 L39.9 314.1 L39.5 316.3"/><path class="cad-draw" pathLength="1" style="animation-delay:2.35s" d="M186.2 393.9 L185.5 397.1 L185.2 399.2"/><path class="cad-draw" pathLength="1" style="animation-delay:2.35s" d="M2.5 226.2 L4.1 227.7 L6.8 230.1 L9.4 232.5 L10.4 233.4"/><path class="cad-draw" pathLength="1" style="animation-delay:2.36s" d="M197.3 401.6 L196.5 399.2 L195.8 397.6 L195.0 395.8 L194.3 394.1"/><path class="cad-draw" pathLength="1" style="animation-delay:2.36s" d="M21.6 245.1 L22.2 248.7 L22.8 252.7 L23.8 259.0 L23.6 261.0 L23.2 262.2 L20.2 265.7 L18.9 267.2 L16.8 269.5 L14.9 271.8 L12.4 274.7 L11.5 275.8 L10.4 277.0 L8.3 279.4 L6.1 282.0 L5.1 283.1 L2.6 286.8"/><path class="cad-draw" pathLength="1" style="animation-delay:2.37s" d="M95.8 35.8 L93.4 37.2"/><path class="cad-draw" pathLength="1" style="animation-delay:2.37s" d="M93.4 37.2 L92.2 37.7"/><path class="cad-draw" pathLength="1" style="animation-delay:2.38s" d="M37.4 235.2 L28.3 236.6 L22.2 237.6 L20.4 237.8 L11.9 239.0 L6.6 240.0 L-4.6 245.0 L-14.8 249.7 L-38.8 261.6"/><path class="cad-draw" pathLength="1" style="animation-delay:2.38s" d="M231.2 394.6 L244.0 396.0"/><path class="cad-draw" pathLength="1" style="animation-delay:2.39s" d="M381.4 119.1 L381.3 120.9 L380.6 132.1"/><path class="cad-draw" pathLength="1" style="animation-delay:2.39s" d="M-1.5 297.8 L-0.6 295.2 L0.8 291.8 L1.8 289.7 L2.4 288.4 L3.2 287.1 L4.2 285.6 L5.3 284.0 L6.6 282.4 L8.7 280.0 L9.7 278.9 L12.0 276.3 L13.0 275.2 L15.5 272.3 L17.2 270.4 L18.9 268.4 L20.7 266.3 L21.6 265.3 L23.5 262.8 L24.4 261.0 L24.5 259.8 L23.7 253.4 L22.9 248.7 L22.3 244.9 L21.8 242.1 L21.3 239.0 L21.1 237.7 L20.5 234.0 L20.3 232.3"/><path class="cad-draw" pathLength="1" style="animation-delay:2.40s" d="M39.1 325.9 L44.8 325.7 L46.4 325.4 L48.2 325.4 L49.9 325.4"/><path class="cad-draw" pathLength="1" style="animation-delay:2.40s" d="M321.3 355.7 L327.7 356.1"/><path class="cad-draw" pathLength="1" style="animation-delay:2.40s" d="M400.7 215.4 L397.3 202.7 L396.9 201.3"/><path class="cad-draw" pathLength="1" style="animation-delay:2.41s" d="M323.2 347.5 L322.0 348.1 L321.4 354.7 L321.2 356.6 L320.6 365.0 L320.6 366.2 L319.7 377.3"/><path class="cad-draw" pathLength="1" style="animation-delay:2.41s" d="M163.2 17.1 L163.9 7.9 L164.0 6.3 L164.6 -5.6"/><path class="cad-draw" pathLength="1" style="animation-delay:2.42s" d="M97.9 376.0 L102.9 375.5 L107.4 375.8"/><path class="cad-draw" pathLength="1" style="animation-delay:2.42s" d="M215.5 395.5 L215.6 398.4 L220.2 399.6 L220.7 401.9 L221.0 403.0 L223.7 403.4 L225.3 402.9 L225.7 400.0 L226.0 397.5"/><path class="cad-draw" pathLength="1" style="animation-delay:2.43s" d="M47.3 75.0 L45.7 73.3"/><path class="cad-draw" pathLength="1" style="animation-delay:2.43s" d="M97.9 376.0 L102.7 376.4 L107.1 377.3"/><path class="cad-draw" pathLength="1" style="animation-delay:2.44s" d="M5.2 264.0 L6.0 262.5 L7.2 262.4 L8.7 262.2 L10.0 262.0 L11.9 261.8 L14.8 261.4"/><path class="cad-draw" pathLength="1" style="animation-delay:2.44s" d="M230.8 398.4 L242.9 399.6"/><path class="cad-draw" pathLength="1" style="animation-delay:2.45s" d="M107.1 377.3 L113.2 379.4 L116.3 380.8 L121.7 383.8 L130.6 392.3 L138.4 399.1 L145.3 404.4"/><path class="cad-draw" pathLength="1" style="animation-delay:2.45s" d="M154.8 399.5 L151.5 396.7 L150.0 395.3"/><path class="cad-draw" pathLength="1" style="animation-delay:2.46s" d="M392.4 135.2 L392.3 136.7 L392.0 142.5 L391.4 151.5"/><path class="cad-draw" pathLength="1" style="animation-delay:2.46s" d="M11.5 275.8 L13.5 277.7"/><path class="cad-draw" pathLength="1" style="animation-delay:2.46s" d="M196.5 405.3 L195.3 404.4 L193.7 403.6 L191.7 403.2 L190.5 403.3 L188.1 403.9"/><path class="cad-draw" pathLength="1" style="animation-delay:2.47s" d="M95.3 376.1 L97.9 376.0"/><path class="cad-draw" pathLength="1" style="animation-delay:2.47s" d="M2.1 165.9 L0.6 165.2 L-0.7 164.6"/><path class="cad-draw" pathLength="1" style="animation-delay:2.48s" d="M39.1 325.9 L38.7 324.6"/><path class="cad-draw" pathLength="1" style="animation-delay:2.48s" d="M38.3 325.0 L39.1 325.9"/><path class="cad-draw" pathLength="1" style="animation-delay:2.49s" d="M396.7 200.3 L398.1 200.3 L400.0 200.5 L404.0 200.8 L409.7 201.2 L411.1 201.4"/><path class="cad-draw" pathLength="1" style="animation-delay:2.49s" d="M399.9 185.6 L400.6 175.4 L400.7 173.9 L401.2 165.9 L401.3 164.5 L402.0 154.8"/><path class="cad-draw" pathLength="1" style="animation-delay:2.50s" d="M112.2 -22.9 L111.5 -10.5 L111.4 -9.0 L110.8 2.1 L110.7 3.7 L110.3 13.2 L110.2 14.8 L109.6 23.4 L109.6 24.9 L109.1 36.7 L108.4 48.8 L107.9 60.9 L107.7 62.2"/><path class="cad-draw" pathLength="1" style="animation-delay:2.50s" d="M43.4 71.1 L42.0 71.8"/><path class="cad-draw" pathLength="1" style="animation-delay:2.51s" d="M91.4 27.7 L92.1 29.0"/><path class="cad-draw" pathLength="1" style="animation-delay:2.51s" d="M38.3 327.0 L38.4 328.5"/><path class="cad-draw" pathLength="1" style="animation-delay:2.52s" d="M117.2 50.1 L117.8 38.7 L117.8 37.0 L118.4 25.9 L118.5 24.1 L118.7 19.9 L118.9 15.4 L119.0 13.5 L119.4 4.3 L119.5 2.8 L120.0 -6.2 L120.1 -8.4 L120.1 -9.9 L120.7 -21.6"/><path class="cad-draw" pathLength="1" style="animation-delay:2.52s" d="M39.8 335.1 L39.5 333.2 L39.3 330.4 L39.1 327.1 L39.1 325.9"/><path class="cad-draw" pathLength="1" style="animation-delay:2.52s" d="M41.2 70.2 L41.5 71.4"/><path class="cad-draw" pathLength="1" style="animation-delay:2.53s" d="M5.2 264.0 L1.8 264.3"/><path class="cad-draw" pathLength="1" style="animation-delay:2.53s" d="M98.3 24.0 L91.2 25.3"/><path class="cad-draw" pathLength="1" style="animation-delay:2.54s" d="M88.7 12.7 L95.2 13.2 L100.6 13.5 L102.1 13.5 L109.5 13.9 L111.0 14.0 L118.1 14.4 L119.8 14.5 L125.8 14.8 L127.3 14.9 L128.9 15.0 L140.6 15.6"/><path class="cad-draw" pathLength="1" style="animation-delay:2.54s" d="M82.7 376.8 L87.2 376.8 L90.8 376.6 L95.3 376.1"/><path class="cad-draw" pathLength="1" style="animation-delay:2.55s" d="M371.6 320.0 L373.4 316.2 L374.1 315.2 L378.1 307.1 L378.7 306.0 L382.2 299.4"/><path class="cad-draw" pathLength="1" style="animation-delay:2.55s" d="M52.2 342.2 L53.0 347.3 L53.7 351.9 L54.0 353.1"/><path class="cad-draw" pathLength="1" style="animation-delay:2.56s" d="M391.3 153.0 L392.7 153.1 L401.3 153.7 L403.4 153.8 L410.4 154.3 L412.2 154.4"/><path class="cad-draw" pathLength="1" style="animation-delay:2.56s" d="M314.0 62.9 L318.8 38.4 L317.9 30.2 L316.9 22.6 L316.8 20.8 L316.8 19.4 L317.2 17.1"/><path class="cad-draw" pathLength="1" style="animation-delay:2.57s" d="M82.9 26.0 L84.0 27.6 L84.7 28.6 L85.4 29.6 L86.9 31.7"/><path class="cad-draw" pathLength="1" style="animation-delay:2.57s" d="M112.5 392.4 L113.8 392.2 L115.5 392.0 L117.0 392.3 L118.3 392.8 L122.4 395.2"/><path class="cad-draw" pathLength="1" style="animation-delay:2.58s" d="M122.5 395.2 L124.0 396.0 L125.3 396.6 L128.0 397.8 L133.8 399.8 L140.7 402.4 L145.3 404.4"/><path class="cad-draw" pathLength="1" style="animation-delay:2.58s" d="M383.0 93.6 L382.4 102.5 L382.2 106.7"/><path class="cad-draw" pathLength="1" style="animation-delay:2.58s" d="M101.2 383.8 L102.6 385.0 L103.8 386.6 L104.6 388.0 L105.2 390.0 L105.1 391.9"/><path class="cad-draw" pathLength="1" style="animation-delay:2.59s" d="M58.1 56.2 L56.4 53.9 L54.2 51.0 L49.3 44.3"/><path class="cad-draw" pathLength="1" style="animation-delay:2.59s" d="M86.6 25.6 L85.4 26.3"/><path class="cad-draw" pathLength="1" style="animation-delay:2.60s" d="M-2.0 262.8 L-0.6 262.5 L1.8 264.3 L2.0 267.0 L2.1 269.8 L2.3 272.6 L2.5 275.5 L2.7 278.3 L2.8 280.7"/><path class="cad-draw" pathLength="1" style="animation-delay:2.60s" d="M287.4 391.3 L289.1 389.9 L290.4 390.3 L292.6 390.9 L296.6 396.4"/><path class="cad-draw" pathLength="1" style="animation-delay:2.61s" d="M388.6 295.8 L389.2 296.8"/><path class="cad-draw" pathLength="1" style="animation-delay:2.61s" d="M7.2 120.9 L1.7 123.1 L2.5 125.1"/><path class="cad-draw" pathLength="1" style="animation-delay:2.62s" d="M-68.1 261.7 L-66.7 260.8 L-65.6 260.0 L-63.9 258.9 L-62.4 258.0 L-60.7 256.9 L-44.1 248.8 L-33.3 243.6 L-24.4 239.3 L-18.8 236.5 L-17.7 235.9 L-10.5 232.4 L-0.3 227.4 L2.5 226.2 L3.8 225.5 L18.9 218.1 L21.1 217.0 L23.7 215.8 L30.6 212.4 L36.2 209.7 L37.9 208.9 L40.2 207.7 L46.1 204.8 L48.2 203.8"/><path class="cad-draw" pathLength="1" style="animation-delay:2.62s" d="M314.4 17.5 L315.1 19.2 L315.7 21.0 L318.0 37.5"/><path class="cad-draw" pathLength="1" style="animation-delay:2.63s" d="M296.4 16.6 L302.0 16.4 L304.7 16.3 L308.8 16.2 L310.6 16.1"/><path class="cad-draw" pathLength="1" style="animation-delay:2.63s" d="M390.3 297.7 L390.4 299.6"/><path class="cad-draw" pathLength="1" style="animation-delay:2.64s" d="M108.6 396.1 L108.1 394.6 L106.9 394.3"/><path class="cad-draw" pathLength="1" style="animation-delay:2.64s" d="M396.8 286.8 L395.7 288.9 L395.1 290.0 L394.2 291.8"/><path class="cad-draw" pathLength="1" style="animation-delay:2.64s" d="M393.8 294.9 L392.7 294.3"/><path class="cad-draw" pathLength="1" style="animation-delay:2.65s" d="M384.9 308.0 L387.2 309.2"/><path class="cad-draw" pathLength="1" style="animation-delay:2.65s" d="M135.5 411.2 L140.2 403.6"/><path class="cad-draw" pathLength="1" style="animation-delay:2.66s" d="M394.0 134.2 L397.1 134.4 L402.5 134.8 L404.3 134.9 L413.7 135.5 L415.1 135.6"/><path class="cad-draw" pathLength="1" style="animation-delay:2.66s" d="M92.2 395.5 L94.6 390.7 L97.8 384.2"/><path class="cad-draw" pathLength="1" style="animation-delay:2.67s" d="M394.5 297.2 L394.5 296.0 L393.9 294.9"/><path class="cad-draw" pathLength="1" style="animation-delay:2.67s" d="M81.0 383.6 L79.6 381.7 L81.4 380.6 L80.0 381.8 L80.7 382.9"/><path class="cad-draw" pathLength="1" style="animation-delay:2.68s" d="M105.8 395.5 L104.3 396.0 L102.9 397.3"/><path class="cad-draw" pathLength="1" style="animation-delay:2.68s" d="M410.4 261.0 L409.7 262.4 L409.1 263.4 L407.7 266.2 L406.9 267.8 L402.2 276.7 L396.8 286.8"/><path class="cad-draw" pathLength="1" style="animation-delay:2.69s" d="M102.9 397.3 L104.7 397.0 L106.3 396.9"/><path class="cad-draw" pathLength="1" style="animation-delay:2.69s" d="M51.8 360.0 L53.8 363.5 L54.8 364.7"/><path class="cad-draw" pathLength="1" style="animation-delay:2.70s" d="M376.0 329.1 L374.9 331.1 L371.6 337.9"/><path class="cad-draw" pathLength="1" style="animation-delay:2.70s" d="M373.8 78.9 L382.6 79.5 L383.8 79.6"/><path class="cad-draw" pathLength="1" style="animation-delay:2.70s" d="M396.0 80.4 L395.1 93.5 L395.0 95.3 L394.2 107.5 L394.1 109.1 L393.5 117.4 L393.4 118.7"/><path class="cad-draw" pathLength="1" style="animation-delay:2.71s" d="M42.2 355.7 L41.7 353.2 L41.3 350.3"/><path class="cad-draw" pathLength="1" style="animation-delay:2.71s" d="M254.5 402.0 L257.0 406.8 L258.0 408.7 L259.1 410.7 L260.6 413.6 L264.9 421.7 L266.6 424.9"/><path class="cad-draw" pathLength="1" style="animation-delay:2.72s" d="M82.1 16.7 L82.9 18.2 L83.6 17.1 L83.9 16.0 L84.9 15.3 L85.6 13.7 L87.3 14.0 L85.7 13.0 L84.5 13.3 L83.6 14.5 L82.8 15.7 L82.1 16.7"/><path class="cad-draw" pathLength="1" style="animation-delay:2.72s" d="M317.2 17.1 L317.0 15.6 L316.5 14.2"/><path class="cad-draw" pathLength="1" style="animation-delay:2.73s" d="M141.0 403.5 L143.2 404.9 L144.3 405.5 L147.8 407.7 L152.4 410.3 L155.8 411.9 L158.1 412.8 L159.3 413.3 L163.0 414.6 L170.9 417.4 L177.6 419.9 L181.6 421.8 L186.8 424.2 L192.5 427.2 L196.0 429.0 L200.1 430.7 L201.2 431.3 L202.7 432.5 L203.9 433.7 L205.3 435.2 L206.6 436.8 L208.8 440.2"/><path class="cad-draw" pathLength="1" style="animation-delay:2.73s" d="M69.3 24.1 L72.4 22.4"/><path class="cad-draw" pathLength="1" style="animation-delay:2.74s" d="M2.2 287.4 L1.0 289.6 L0.2 291.6 L-3.3 300.4 L-3.7 302.0"/><path class="cad-draw" pathLength="1" style="animation-delay:2.74s" d="M80.0 16.9 L79.4 15.8"/><path class="cad-draw" pathLength="1" style="animation-delay:2.75s" d="M84.6 13.2 L82.6 12.4 L81.4 12.8 L80.4 14.1 L80.2 15.6 L81.5 16.6 L82.8 15.8 L83.2 14.3 L84.5 13.3"/><path class="cad-draw" pathLength="1" style="animation-delay:2.75s" d="M319.9 13.6 L318.3 13.6 L316.2 13.8"/><path class="cad-draw" pathLength="1" style="animation-delay:2.76s" d="M78.1 18.1 L76.9 18.6 L74.0 16.6 L72.8 16.0"/><path class="cad-draw" pathLength="1" style="animation-delay:2.76s" d="M79.2 14.8 L79.9 13.3 L80.8 12.4 L82.1 11.9 L84.0 11.9"/><path class="cad-draw" pathLength="1" style="animation-delay:2.76s" d="M79.2 14.8 L79.1 12.7"/><path class="cad-draw" pathLength="1" style="animation-delay:2.77s" d="M60.4 376.7 L61.4 378.3 L62.4 379.9 L61.6 378.2 L60.6 376.9"/><path class="cad-draw" pathLength="1" style="animation-delay:2.77s" d="M99.4 400.0 L98.1 400.9 L97.0 401.8 L95.0 403.2"/><path class="cad-draw" pathLength="1" style="animation-delay:2.78s" d="M384.7 79.6 L385.1 73.1 L385.3 71.0"/><path class="cad-draw" pathLength="1" style="animation-delay:2.78s" d="M356.4 363.7 L357.7 362.5"/><path class="cad-draw" pathLength="1" style="animation-delay:2.79s" d="M42.5 370.8 L43.9 371.5 L63.3 381.2 L72.5 385.7 L76.5 387.8 L78.3 388.6"/><path class="cad-draw" pathLength="1" style="animation-delay:2.79s" d="M331.5 379.1 L331.4 383.0 L331.1 387.3 L331.0 388.8 L333.3 390.6"/><path class="cad-draw" pathLength="1" style="animation-delay:2.80s" d="M84.1 403.2 L84.5 398.1 L84.9 393.3 L85.1 392.0"/><path class="cad-draw" pathLength="1" style="animation-delay:2.80s" d="M382.1 65.9 L381.7 67.6"/><path class="cad-draw" pathLength="1" style="animation-delay:2.81s" d="M40.3 363.6 L41.1 364.7 L42.2 365.8 L43.8 367.4 L45.0 368.6 L46.3 369.9 L47.3 370.8 L48.3 371.8 L49.5 372.7 L50.7 373.6 L51.9 374.6 L53.3 375.5 L54.6 376.1 L53.6 375.3 L52.4 374.7 L51.1 373.8 L50.1 373.0 L48.9 372.0 L47.9 371.1 L46.9 370.2 L45.1 368.5 L43.4 366.7 L42.5 365.8 L41.7 364.9 L40.9 363.9"/><path class="cad-draw" pathLength="1" style="animation-delay:2.81s" d="M39.4 364.8 L38.2 364.2 L38.3 363.0 L39.6 362.6 L40.3 363.6 L39.7 364.7"/><path class="cad-draw" pathLength="1" style="animation-delay:2.82s" d="M332.9 15.2 L332.7 17.1"/><path class="cad-draw" pathLength="1" style="animation-delay:2.82s" d="M353.4 368.2 L352.3 373.4 L351.8 374.5 L350.0 376.1"/><path class="cad-draw" pathLength="1" style="animation-delay:2.82s" d="M384.8 64.2 L383.2 64.7 L382.1 65.9"/><path class="cad-draw" pathLength="1" style="animation-delay:2.83s" d="M325.8 7.1 L326.6 8.0 L328.5 11.0 L330.3 13.5 L331.5 15.2 L332.7 17.1"/><path class="cad-draw" pathLength="1" style="animation-delay:2.83s" d="M285.0 398.7 L284.4 410.1 L283.9 418.0 L283.7 420.6 L283.6 422.2 L283.2 429.5"/><path class="cad-draw" pathLength="1" style="animation-delay:2.84s" d="M42.5 370.8 L40.4 369.5 L39.5 368.5 L37.6 365.7 L36.3 363.6"/><path class="cad-draw" pathLength="1" style="animation-delay:2.84s" d="M342.0 380.5 L343.1 381.9 L345.1 384.2 L346.1 385.0"/><path class="cad-draw" pathLength="1" style="animation-delay:2.85s" d="M331.6 13.1 L329.7 10.5 L327.5 7.2 L326.2 6.4 L324.9 6.5"/><path class="cad-draw" pathLength="1" style="animation-delay:2.85s" d="M300.0 -10.9 L301.3 -8.9 L303.0 -6.3 L306.9 1.2"/><path class="cad-draw" pathLength="1" style="animation-delay:2.86s" d="M66.9 392.9 L65.3 392.0 L55.5 385.4"/><path class="cad-draw" pathLength="1" style="animation-delay:2.86s" d="M327.1 6.9 L326.0 5.3 L324.9 4.6"/><path class="cad-draw" pathLength="1" style="animation-delay:2.87s" d="M78.4 8.8 L76.7 7.6 L74.1 5.8 L69.5 2.6 L69.2 1.1"/><path class="cad-draw" pathLength="1" style="animation-delay:2.87s" d="M374.2 352.2 L382.6 357.3"/><path class="cad-draw" pathLength="1" style="animation-delay:2.88s" d="M314.5 4.8 L321.0 -9.6"/><path class="cad-draw" pathLength="1" style="animation-delay:2.88s" d="M0.4 324.8 L1.2 328.5 L1.3 330.7 L1.3 334.1 L1.2 335.3"/><path class="cad-draw" pathLength="1" style="animation-delay:2.88s" d="M-73.0 264.1 L-67.4 260.4 L-61.2 256.3 L-57.7 254.3 L-42.0 246.7 L-10.3 231.1 L0.0 226.0 L39.0 207.1"/><path class="cad-draw" pathLength="1" style="animation-delay:2.89s" d="M350.4 381.4 L352.6 384.0 L354.1 385.6 L357.1 389.1"/><path class="cad-draw" pathLength="1" style="animation-delay:2.89s" d="M22.0 43.2 L21.6 41.7 L20.7 40.7"/><path class="cad-draw" pathLength="1" style="animation-delay:2.90s" d="M25.3 37.0 L22.1 39.1"/><path class="cad-draw" pathLength="1" style="animation-delay:2.90s" d="M396.9 300.8 L398.8 301.8 L401.2 303.1 L402.7 304.0 L411.7 308.9 L412.8 309.6 L417.3 312.4 L419.4 313.7 L420.6 314.4 L422.4 315.6 L424.3 316.7 L425.9 317.8 L429.7 320.3 L430.8 321.0"/><path class="cad-draw" pathLength="1" style="animation-delay:2.91s" d="M69.5 0.4 L72.3 -3.8 L73.4 -5.2"/><path class="cad-draw" pathLength="1" style="animation-delay:2.91s" d="M72.8 -5.9 L69.5 -1.0 L68.4 0.3 L66.5 1.3 L64.6 1.5 L63.0 1.2 L58.6 -1.7"/><path class="cad-draw" pathLength="1" style="animation-delay:2.92s" d="M0.1 349.0 L1.4 347.8 L3.2 346.6 L5.6 345.3 L7.1 344.0"/><path class="cad-draw" pathLength="1" style="animation-delay:2.92s" d="M1.2 335.3 L0.7 338.0 L-1.0 345.3 L-1.5 347.1 L-2.2 349.6"/><path class="cad-draw" pathLength="1" style="animation-delay:2.93s" d="M408.4 56.3 L398.3 55.5 L397.1 55.6 L387.4 55.2"/><path class="cad-draw" pathLength="1" style="animation-delay:2.93s" d="M388.5 41.5 L387.2 41.4"/><path class="cad-draw" pathLength="1" style="animation-delay:2.94s" d="M334.6 411.6 L335.0 410.2 L341.2 404.4"/><path class="cad-draw" pathLength="1" style="animation-delay:2.94s" d="M367.8 19.4 L370.1 19.6 L375.0 20.0 L376.5 20.1"/><path class="cad-draw" pathLength="1" style="animation-delay:2.94s" d="M352.9 403.2 L350.9 402.8"/><path class="cad-draw" pathLength="1" style="animation-delay:2.95s" d="M366.4 392.8 L365.0 393.9 L363.7 394.7"/><path class="cad-draw" pathLength="1" style="animation-delay:2.95s" d="M361.6 397.0 L363.1 395.9"/><path class="cad-draw" pathLength="1" style="animation-delay:2.96s" d="M-41.2 35.2 L-39.5 40.9 L-38.4 44.2 L-36.3 49.9 L-35.7 52.0 L-33.9 55.0 L-32.5 57.2 L-31.4 58.7 L-30.6 59.7 L-29.7 60.6 L-16.2 74.8 L-14.7 76.3 L-8.4 83.0 L-3.3 88.4 L9.5 101.9 L16.3 109.2 L21.0 114.3 L26.5 118.9"/><path class="cad-draw" pathLength="1" style="animation-delay:2.96s" d="M358.4 6.5 L358.9 5.1 L359.5 -5.6"/><path class="cad-draw" pathLength="1" style="animation-delay:2.97s" d="M358.4 6.5 L359.2 5.4 L359.5 1.3 L359.9 -4.5 L360.0 -7.2"/><path class="cad-draw" pathLength="1" style="animation-delay:2.97s" d="M358.4 6.5 L358.2 5.0 L358.6 -0.3 L358.8 -4.4 L358.9 -6.4 L359.2 -7.8"/><path class="cad-draw" pathLength="1" style="animation-delay:2.98s" d="M18.5 9.6 L21.0 8.9 L24.1 7.9 L26.8 6.8 L33.4 3.3 L35.7 2.1 L44.3 -2.6"/><path class="cad-draw" pathLength="1" style="animation-delay:2.98s" d="M388.5 20.7 L389.7 20.8 L391.6 20.9 L398.9 21.5"/><path class="cad-draw" pathLength="1" style="animation-delay:2.99s" d="M398.3 379.8 L398.6 380.9 L397.8 382.1"/><path class="cad-draw" pathLength="1" style="animation-delay:2.99s" d="M400.1 382.3 L398.6 381.8 L397.3 382.9 L396.5 384.2 L393.5 389.1 L391.5 392.4 L390.6 393.9 L389.9 395.1 L388.2 397.6 L384.5 404.2 L384.2 405.3 L386.6 408.8 L386.7 410.3"/><path class="cad-draw" pathLength="1" style="animation-delay:3.00s" d="M394.5 398.0 L390.5 395.5"/></g></svg>
